<?xml version="1.0" encoding="utf-8"?>
<!-- Generator: Adobe Illustrator 25.4.1, SVG Export Plug-In . SVG Version: 6.00 Build 0)  -->
<svg version="1.1" id="Layer_1" xmlns="http://www.w3.org/2000/svg" xmlns:xlink="http://www.w3.org/1999/xlink" x="0px" y="0px"
	 viewBox="0 0 677 527" style="enable-background:new 0 0 677 527;" xml:space="preserve">
<style type="text/css">
	.st0{fill:#CACEDB;}
</style>
<path class="st0" d="M210.1,39c0.1-0.3,0.2-0.6,0.3-0.9c0.1-0.3,0.2-0.5,0.3-0.9c0.2-0.6,0.5-1.2,0.7-1.8c0.2-0.5,0.4-1.1,0.6-1.6
	c0.2-0.5,0.5-1.1,0.7-1.6c0.2-0.4,0-0.8-0.4-1c-0.4-0.2-0.8-0.2-1.1,0.3c-0.6,1.1-1.1,2.2-1.5,3.4l-0.6,1.7
	c-0.1,0.3-0.2,0.6-0.3,0.9c-0.1,0.3-0.2,0.6-0.3,0.9c-0.1,0.5,0.2,0.8,0.6,0.9C209.5,39.5,209.9,39.4,210.1,39z"/>
<path class="st0" d="M215.8,27.4c0.3-0.5,0.7-1,1.1-1.6c0.4-0.5,0.7-1,1.1-1.6c0.3-0.5,0.6-1,1-1.4c0.3-0.5,0.7-0.9,1.1-1.4
	c0.7-0.7-0.6-1.8-1.2-1c-0.4,0.5-0.8,0.9-1.2,1.4c-0.4,0.5-0.7,1-1.1,1.5l-0.5,0.8l-0.5,0.8l-1,1.6c-0.3,0.4-0.1,0.9,0.3,1.1
	C215.1,27.8,215.6,27.8,215.8,27.4z"/>
<path class="st0" d="M224,17.1c0.4-0.5,0.9-0.9,1.3-1.4c0.4-0.5,0.9-0.9,1.3-1.4c0.2-0.2,0.4-0.4,0.6-0.6c0.2-0.2,0.4-0.4,0.6-0.6
	c0.4-0.4,0.8-0.8,1.3-1.1c0.4-0.3,0.3-0.8,0.1-1.1c-0.2-0.3-0.7-0.5-1.1-0.2c-0.5,0.4-1,0.8-1.4,1.2c-0.2,0.2-0.4,0.4-0.7,0.7
	l-0.6,0.7c-0.4,0.5-0.8,0.9-1.2,1.4c-0.4,0.5-0.8,0.9-1.2,1.4C222.1,16.8,223.4,17.9,224,17.1z"/>
<path class="st0" d="M233.9,8.9l0.8-0.4l0.4-0.2l0.4-0.2c0.6-0.3,1.2-0.6,1.7-0.9c1-0.6,2-1.2,3.1-1.6c0.9-0.4,0.3-1.9-0.7-1.5
	c-1.1,0.5-2.2,1-3.3,1.6l-1.6,0.9c-0.5,0.3-1.1,0.6-1.7,0.9C232.2,8,233.1,9.4,233.9,8.9z"/>
<path class="st0" d="M245.9,3.7c1.2-0.4,2.4-0.6,3.6-0.8c1.1-0.3,2.3-0.5,3.4-0.6c0.5,0,0.7-0.5,0.7-0.9c-0.1-0.4-0.3-0.8-0.8-0.7
	c-1.2,0.1-2.4,0.3-3.7,0.5c-0.6,0.1-1.2,0.3-1.8,0.4c-0.6,0.2-1.2,0.3-1.8,0.5c-0.5,0.2-0.6,0.6-0.4,1
	C245.1,3.5,245.4,3.8,245.9,3.7z"/>
<path class="st0" d="M258.7,1.6c0.5,0,1.1,0.1,1.7,0.2l0.5,0.1c0.2,0,0.3,0.1,0.5,0.1c0.3,0,0.7,0.1,1,0.1c1.1,0,2.3,0.1,3.4,0.4
	c0.5,0.1,0.8-0.2,0.9-0.6c0.1-0.4,0-0.9-0.6-1c-0.6-0.2-1.2-0.3-1.9-0.3c-0.6-0.1-1.2-0.1-1.8-0.2c-0.3,0-0.6-0.1-0.9-0.1
	c-0.3,0-0.6-0.1-0.9-0.1C260,0,259.3,0,258.6,0c-0.6,0-0.8,0.5-0.7,0.9C258,1.3,258.3,1.7,258.7,1.6z"/>
<path class="st0" d="M271.1,4.5c0.6,0.3,1.1,0.6,1.7,0.8c0.6,0.3,1.1,0.6,1.7,0.9c0.5,0.2,1,0.5,1.5,0.8c0.5,0.3,0.9,0.6,1.4,1
	c0.4,0.3,0.8,0.2,1.1-0.1c0.3-0.3,0.3-0.8,0-1.1c-0.2-0.2-0.5-0.4-0.7-0.6c-0.3-0.2-0.5-0.4-0.8-0.6c-0.5-0.3-1.1-0.7-1.6-1
	c-0.6-0.3-1.1-0.6-1.7-0.8c-0.6-0.3-1.1-0.5-1.7-0.8c-0.5-0.2-0.9,0.1-1,0.4C270.6,3.9,270.6,4.3,271.1,4.5z"/>
<path class="st0" d="M281.1,12.3c0.4,0.5,0.8,1,1.1,1.5c0.2,0.3,0.4,0.5,0.6,0.8c0.2,0.3,0.4,0.5,0.6,0.7c0.4,0.4,0.7,0.9,1,1.4
	c0.3,0.5,0.6,1,0.9,1.5c0.4,0.9,1.9,0.1,1.4-0.8c-0.3-0.5-0.6-1.1-0.9-1.6c-0.3-0.5-0.7-1-1.1-1.5l-0.6-0.7l-0.6-0.7
	c-0.4-0.5-0.8-1-1.2-1.5c-0.3-0.4-0.8-0.3-1.1-0.1C280.9,11.5,280.8,11.9,281.1,12.3z"/>
<path class="st0" d="M287.6,23.5c0.3,0.6,0.5,1.2,0.7,1.8c0.2,0.6,0.5,1.2,0.8,1.8c0.5,1,1,2.1,1.4,3.2c0.2,0.5,0.6,0.6,1,0.4
	c0.4-0.1,0.7-0.5,0.5-1c-0.4-1.2-0.9-2.3-1.4-3.4l-0.8-1.7c-0.3-0.6-0.5-1.1-0.8-1.7C288.7,21.9,287.2,22.6,287.6,23.5z"/>
<path class="st0" d="M292.1,35.9c0.2,0.6,0.3,1.2,0.5,1.9c0.2,0.6,0.3,1.2,0.5,1.8c0.2,0.5,0.4,1.1,0.5,1.6c0.1,0.6,0.3,1.1,0.3,1.7
	c0.1,1,1.7,0.7,1.6-0.3c-0.1-0.6-0.2-1.2-0.3-1.8c-0.1-0.6-0.3-1.2-0.5-1.8c-0.2-0.6-0.4-1.2-0.5-1.8c-0.2-0.6-0.4-1.2-0.5-1.8
	c-0.1-0.5-0.6-0.6-1-0.5C292.3,35,292,35.4,292.1,35.9z"/>
<path class="st0" d="M294.5,48.7c0.2,1.3,0.3,2.6,0.7,3.8c0.2,0.6,0.3,1.1,0.4,1.7c0.1,0.6,0.3,1.1,0.3,1.7c0.1,0.5,0.5,0.7,0.9,0.6
	c0.4,0,0.8-0.3,0.7-0.9c0-0.3-0.1-0.6-0.1-0.9c-0.1-0.3-0.1-0.6-0.2-0.9c-0.1-0.6-0.3-1.2-0.4-1.8c-0.3-1.2-0.6-2.4-0.7-3.6
	C296,47.5,294.4,47.7,294.5,48.7z"/>
<path class="st0" d="M296.2,61.8c0.1,1.3,0.2,2.6,0.6,3.9c0.2,0.6,0.3,1.1,0.4,1.6c0.1,0.5,0.2,1.1,0.2,1.7c0,1,1.6,0.9,1.6-0.1
	c0-0.6,0-1.3-0.2-1.9c0-0.3-0.1-0.6-0.2-1l-0.2-0.9c-0.1-0.6-0.3-1.2-0.4-1.8c-0.1-0.6-0.2-1.2-0.2-1.8
	C297.8,60.7,296.2,60.8,296.2,61.8z"/>
<path class="st0" d="M297.8,75c0.1,0.6,0.2,1.2,0.2,1.9l0.1,0.9c0,0.3,0,0.6,0.1,0.9c0.1,0.6,0.1,1.2,0.2,1.8
	c0.1,0.6,0.1,1.2,0.1,1.8c0,1,1.7,0.9,1.6-0.1c0-0.6-0.1-1.2-0.1-1.8c-0.1-0.6-0.1-1.2-0.1-1.8c0-0.6-0.1-1.3-0.2-1.9
	c-0.1-0.6-0.2-1.3-0.3-1.9C299.3,73.8,297.7,74.1,297.8,75z"/>
<path class="st0" d="M298.8,88.2c0,0.6,0.1,1.3,0.1,1.9c0,0.6,0.1,1.3,0.2,2c0.1,0.6,0.2,1.1,0.3,1.7c0.1,0.6,0.2,1.2,0.2,1.7
	c0.1,1,1.7,0.8,1.6-0.2c0-0.6-0.1-1.2-0.2-1.8c-0.1-0.6-0.2-1.2-0.3-1.8c-0.1-0.6-0.2-1.2-0.2-1.8c-0.1-0.6-0.1-1.2-0.2-1.9
	C300.3,87,298.7,87.2,298.8,88.2z"/>
<path class="st0" d="M300.3,101.4c0.2,1.3,0.4,2.6,0.8,3.8c0.3,1.1,0.7,2.2,0.9,3.4c0.2,1,1.8,0.7,1.6-0.3c-0.4-2.4-1.2-4.7-1.6-7.2
	C301.7,100.2,300.1,100.4,300.3,101.4z"/>
<path class="st0" d="M302.8,114.5c0.3,1.3,0.5,2.6,1,3.8c0.4,1.1,0.9,2.2,1.2,3.3c0.2,0.5,0.6,0.6,1,0.4c0.4-0.1,0.7-0.5,0.5-1
	c-0.7-2.3-1.7-4.5-2.2-6.9C304.2,113.2,302.6,113.5,302.8,114.5z"/>
<path class="st0" d="M307.4,127.1c0.7,1.1,1.3,2.3,2,3.3c0.3,0.5,0.7,0.9,1,1.4c0.3,0.5,0.6,1,0.8,1.5c0.5,0.9,1.9,0.1,1.4-0.8
	c-0.3-0.5-0.6-1.1-0.9-1.6c-0.3-0.5-0.7-1.1-1-1.6c-0.7-1-1.4-2-2-3.1C308.4,125.5,306.9,126.3,307.4,127.1z"/>
<path class="st0" d="M314.4,138.6c0.4,0.5,0.8,1,1.3,1.5c0.2,0.2,0.5,0.5,0.7,0.7c0.2,0.2,0.5,0.5,0.7,0.7c0.4,0.4,0.9,0.8,1.3,1.1
	c0.5,0.4,0.9,0.8,1.3,1.2c0.7,0.7,1.8-0.5,1.1-1.2c-0.4-0.4-0.9-0.8-1.3-1.2c-0.5-0.4-0.9-0.8-1.3-1.2c-0.4-0.4-0.9-0.8-1.3-1.3
	c-0.4-0.4-0.8-0.9-1.2-1.4C315.1,136.8,313.8,137.7,314.4,138.6z"/>
<path class="st0" d="M324.1,147.9c1,0.8,2,1.6,3.1,2.3c0.5,0.3,1,0.6,1.5,0.9c0.2,0.2,0.5,0.3,0.7,0.5c0.2,0.2,0.5,0.3,0.7,0.5
	c0.2,0.2,0.4,0.2,0.6,0.1c0.2-0.1,0.3-0.2,0.5-0.4s0.2-0.4,0.2-0.6c0-0.2-0.1-0.4-0.3-0.5c-0.2-0.2-0.5-0.3-0.7-0.5
	c-0.2-0.2-0.5-0.4-0.7-0.5c-0.5-0.3-1-0.7-1.5-1c-1-0.7-2-1.3-3-2.1C324.4,146,323.3,147.2,324.1,147.9z"/>
<path class="st0" d="M335.4,155.2c0.6,0.3,1.2,0.5,1.8,0.7c0.3,0.1,0.6,0.2,0.9,0.3c0.3,0.1,0.6,0.2,1,0.3c0.6,0.1,1.1,0.2,1.7,0.4
	c0.6,0.1,1.1,0.3,1.7,0.5c1,0.3,1.4-1.3,0.5-1.6c-0.6-0.2-1.2-0.3-1.7-0.5c-0.6-0.2-1.2-0.3-1.7-0.5c-0.6-0.2-1.2-0.3-1.7-0.5
	c-0.6-0.2-1.1-0.4-1.7-0.6C335.2,153.3,334.5,154.8,335.4,155.2z"/>
<path class="st0" d="M348.2,159.2c0.6,0.2,1.3,0.3,1.9,0.5c0.6,0.2,1.3,0.3,1.9,0.4c1.1,0.1,2.4,0.3,3.5,0.5
	c0.5,0.1,0.8-0.3,0.8-0.7c0-0.4-0.1-0.8-0.6-0.9c-1.2-0.2-2.4-0.4-3.5-0.6c-0.6-0.1-1.2-0.2-1.8-0.3c-0.6-0.1-1.2-0.3-1.8-0.4
	C347.6,157.4,347.2,158.9,348.2,159.2z"/>
<path class="st0" d="M361.4,161.2c1.2,0.1,2.4,0.3,3.7,0.4c1.2,0.1,2.4,0.2,3.6,0.2c0.5,0,0.8-0.4,0.8-0.8c0-0.4-0.2-0.8-0.7-0.9
	c-0.6,0-1.1-0.1-1.7-0.1c-0.6-0.1-1.2-0.1-1.8-0.2c-1.2-0.1-2.5-0.3-3.7-0.3c-0.5,0-0.8,0.4-0.8,0.8c0,0.2,0.1,0.4,0.2,0.6
	C361,161.1,361.2,161.2,361.4,161.2z"/>
<path class="st0" d="M374.7,161.7c0.6-0.1,1.3-0.2,1.9-0.3c0.6-0.1,1.3-0.2,1.9-0.3c1.1-0.3,2.3-0.5,3.4-0.6c1-0.1,0.8-1.7-0.2-1.6
	c-1.2,0.1-2.4,0.3-3.6,0.6c-1.2,0.2-2.4,0.5-3.6,0.7C373.6,160.2,373.7,161.8,374.7,161.7z"/>
<path class="st0" d="M387.9,159.8c0.3-0.1,0.6-0.1,0.9-0.2l0.9-0.1c0.6-0.1,1.3-0.2,1.9-0.3c1.1-0.2,2.3-0.4,3.4-0.6
	c0.5,0,0.7-0.5,0.6-0.9c-0.1-0.4-0.4-0.8-0.8-0.7c-1.2,0.1-2.4,0.3-3.6,0.5c-0.6,0.1-1.2,0.2-1.8,0.3l-1.8,0.3
	C386.6,158.4,386.9,160,387.9,159.8z"/>
<path class="st0" d="M401,157.6c1.3-0.4,2.5-0.8,3.7-1.3c1-0.5,2.1-0.9,3.2-1.3c1-0.3,0.5-1.8-0.5-1.5c-1.2,0.3-2.3,0.8-3.5,1.2
	c-1.1,0.5-2.3,1-3.4,1.3c-0.5,0.2-0.6,0.6-0.5,1C400.2,157.4,400.6,157.7,401,157.6z"/>
<path class="st0" d="M413.6,153.5c1.2-0.4,2.5-0.7,3.7-1.3c1-0.5,2.1-0.9,3.2-1.3c0.5-0.1,0.6-0.6,0.4-1c-0.1-0.4-0.5-0.7-1-0.6
	c-2.3,0.7-4.5,1.8-6.9,2.5C412.2,152.2,412.7,153.8,413.6,153.5z"/>
<path class="st0" d="M426.2,149.1c0.6-0.2,1.2-0.5,1.8-0.7c0.6-0.3,1.2-0.5,1.8-0.9c0.5-0.3,1-0.6,1.5-0.9c0.5-0.3,1-0.6,1.6-0.8
	c0.9-0.4,0.2-1.9-0.7-1.5c-0.5,0.2-1.1,0.5-1.6,0.8c-0.5,0.3-1.1,0.6-1.6,0.8c-0.5,0.3-1.1,0.6-1.6,0.8c-0.5,0.3-1.1,0.5-1.7,0.7
	C424.7,148,425.3,149.5,426.2,149.1z"/>
<path class="st0" d="M438.2,143.3c1.1-0.6,2.3-1.2,3.4-2c0.9-0.7,1.9-1.3,2.9-1.8c0.9-0.4,0.1-1.9-0.8-1.4c-2.2,1.1-4.2,2.6-6.3,3.8
	C436.6,142.4,437.4,143.8,438.2,143.3z"/>
<path class="st0" d="M449.9,136.9c1.1-0.7,2.3-1.3,3.3-2.1c0.9-0.7,1.8-1.5,2.8-2.1c0.8-0.6-0.1-1.9-0.9-1.3c-2,1.3-3.9,2.9-6,4.1
	C448.2,136,449,137.4,449.9,136.9z"/>
<path class="st0" d="M460.9,129.6c1.1-0.7,2.2-1.3,3.2-2.2c0.9-0.7,1.8-1.5,2.8-2.1c0.4-0.3,0.4-0.7,0.2-1.1
	c-0.2-0.3-0.7-0.5-1.1-0.3c-2,1.3-3.9,2.9-6,4.2C459.2,128.8,460.1,130.1,460.9,129.6z"/>
<path class="st0" d="M471.8,121.7c1-0.9,1.9-1.8,2.7-2.9c0.7-0.9,1.4-1.9,2.2-2.7c0.7-0.7-0.5-1.8-1.2-1.1c-0.9,0.9-1.6,1.8-2.4,2.7
	c-0.8,0.9-1.6,1.9-2.4,2.7c-0.4,0.3-0.3,0.8,0,1.1C471,121.9,471.4,122.1,471.8,121.7z"/>
<path class="st0" d="M481.1,112.2c0.9-0.9,1.9-1.8,2.7-2.8c0.7-0.9,1.4-1.9,2.2-2.7c0.7-0.7-0.5-1.8-1.2-1.1
	c-1.7,1.7-3.1,3.7-4.8,5.5C479.2,111.8,480.4,112.9,481.1,112.2z"/>
<path class="st0" d="M490,102.3c0.8-1,1.6-2.1,2.3-3.2c0.6-1,1.2-2,1.8-3c0.6-0.8-0.7-1.7-1.3-0.9c-1.4,2-2.6,4.2-4,6.1
	c-0.3,0.4-0.1,0.8,0.2,1.1C489.2,102.6,489.7,102.7,490,102.3z"/>
<path class="st0" d="M497.7,91.5c0.4-0.5,0.8-1.1,1.1-1.7c0.2-0.3,0.3-0.6,0.5-0.9c0.2-0.3,0.3-0.6,0.4-0.9c0.2-0.5,0.5-1.1,0.7-1.6
	c0.2-0.5,0.5-1.1,0.7-1.6c0.2-0.4,0-0.8-0.4-1c-0.4-0.2-0.8-0.1-1.1,0.3c-0.1,0.3-0.3,0.5-0.4,0.8l-0.4,0.8
	c-0.2,0.5-0.5,1.1-0.8,1.6c-0.3,0.5-0.5,1.1-0.8,1.6c-0.3,0.5-0.6,1-1,1.5C495.8,91.3,497.1,92.3,497.7,91.5z"/>
<path class="st0" d="M503.7,79.4c0.2-0.6,0.4-1.2,0.6-1.9c0.2-0.6,0.4-1.3,0.5-1.9c0.2-1.1,0.4-2.3,0.7-3.4c0.3-1-1.3-1.4-1.6-0.4
	c-0.3,1.2-0.6,2.4-0.8,3.5c-0.1,0.6-0.3,1.2-0.4,1.8c-0.1,0.6-0.3,1.2-0.5,1.8C501.8,79.8,503.3,80.3,503.7,79.4z"/>
<path class="st0" d="M507,66.4c0.1-0.6,0.2-1.3,0.3-2c0.1-0.7,0.1-1.3,0.1-2c0-0.6,0-1.2,0-1.8c0-0.6,0-1.2,0.1-1.8c0-1-1.6-1-1.6,0
	c0,0.6-0.1,1.2-0.1,1.8c0,0.6,0,1.2,0,1.8l-0.1,1.8l0,0.5l-0.1,0.5c0,0.3-0.1,0.6-0.1,0.9C505.2,67.1,506.8,67.4,507,66.4z"/>
<path class="st0" d="M507.5,52.9c-0.1-0.7-0.2-1.3-0.2-2c0-0.3-0.1-0.7-0.1-1c-0.1-0.3-0.2-0.6-0.2-1c-0.2-0.6-0.3-1.1-0.5-1.7
	c-0.1-0.6-0.3-1.1-0.4-1.7c-0.2-1-1.8-0.6-1.6,0.4c0.1,0.3,0.1,0.6,0.2,0.9c0.1,0.3,0.2,0.6,0.2,0.9c0.1,0.6,0.3,1.2,0.4,1.8
	c0.1,0.3,0.2,0.6,0.2,0.9l0.2,0.9c0.1,0.6,0.2,1.2,0.3,1.8C505.9,54,507.5,53.9,507.5,52.9z"/>
<path class="st0" d="M504.5,39.8l-0.3-0.9l-0.2-0.5l-0.2-0.5c-0.3-0.6-0.6-1.2-0.9-1.8c-0.3-0.5-0.6-1-0.9-1.5
	c-0.3-0.5-0.6-1-0.8-1.5c-0.2-0.4-0.7-0.5-1.1-0.3c-0.4,0.2-0.6,0.6-0.4,1c0.3,0.5,0.5,1.1,0.8,1.6l0.4,0.8c0.2,0.3,0.3,0.5,0.4,0.8
	l0.8,1.6c0.1,0.3,0.3,0.5,0.4,0.8s0.2,0.6,0.3,0.8C503.3,41.3,504.8,40.8,504.5,39.8z"/>
<path class="st0" d="M498.2,27.9c-0.4-0.5-0.8-1.1-1.2-1.6c-0.4-0.5-0.8-1-1.3-1.5c-0.8-0.8-1.7-1.7-2.4-2.5
	c-0.6-0.8-1.8,0.3-1.2,1.1c0.8,0.9,1.6,1.8,2.4,2.7c0.4,0.4,0.8,0.9,1.2,1.4c0.4,0.5,0.8,0.9,1.1,1.4
	C497.4,29.6,498.8,28.7,498.2,27.9z"/>
<path class="st0" d="M489.3,17.8c-1-0.9-2-1.8-3.2-2.4c-0.5-0.3-1-0.6-1.6-0.9c-0.5-0.3-1-0.6-1.5-0.9c-0.4-0.3-0.8,0-1,0.3
	c-0.2,0.4-0.2,0.8,0.2,1.1c0.5,0.3,1,0.6,1.5,0.9l0.8,0.5l0.8,0.5c0.5,0.3,1,0.6,1.5,1c0.5,0.3,1,0.7,1.4,1.1
	c0.4,0.3,0.8,0.2,1.1-0.1C489.6,18.6,489.7,18.1,489.3,17.8z"/>
<path class="st0" d="M477.9,10.6c-1.2-0.6-2.3-1.2-3.6-1.6c-1.1-0.3-2.2-0.7-3.3-1.2c-0.9-0.4-1.5,1.1-0.6,1.5
	c2.2,1,4.6,1.6,6.8,2.7C478.1,12.5,478.8,11,477.9,10.6z"/>
<path class="st0" d="M465.7,5.4c-1.2-0.5-2.5-0.9-3.8-1.1c-0.6-0.1-1.2-0.2-1.8-0.3c-0.6-0.1-1.2-0.2-1.7-0.3
	c-1-0.2-1.3,1.4-0.3,1.6c0.6,0.1,1.2,0.2,1.8,0.3c0.6,0.1,1.2,0.2,1.8,0.3c1.2,0.3,2.3,0.6,3.5,1C466,7.2,466.6,5.7,465.7,5.4z"/>
<path class="st0" d="M452.6,2.4c-1.3-0.2-2.6-0.3-3.9-0.3c-0.6,0-1.2,0.1-1.8,0.1c-0.6,0-1.2,0-1.8,0.1c-0.5,0-0.7,0.5-0.7,0.9
	c0,0.4,0.3,0.8,0.8,0.8c0.6,0,1.1,0,1.7,0c0.6,0,1.2,0,1.8,0c1.2,0,2.4,0,3.6,0.2C453.3,4.2,453.6,2.5,452.6,2.4z"/>
<path class="st0" d="M439.1,3.1c-0.6,0.1-1.3,0.3-1.9,0.4c-0.6,0.1-1.2,0.2-1.8,0.4c-1.1,0.3-2.3,0.5-3.4,0.6
	c-1,0.1-0.7,1.7,0.2,1.6c1.2-0.1,2.4-0.4,3.6-0.6c1.3-0.2,2.5-0.6,3.7-0.8C440.4,4.5,440.1,2.9,439.1,3.1z"/>
<path class="st0" d="M426,6c-1.2,0.6-2.3,1.2-3.4,1.9c-0.5,0.3-0.9,0.6-1.4,0.8c-0.5,0.2-1.1,0.5-1.6,0.7c-1,0.4-0.3,1.9,0.6,1.5
	c0.6-0.2,1.1-0.4,1.7-0.6c0.6-0.2,1.2-0.5,1.7-0.9c1.1-0.6,2.1-1.3,3.2-1.9c0.4-0.2,0.5-0.7,0.3-1.1C426.9,6,426.5,5.8,426,6z"/>
<path class="st0" d="M414.1,11.8c-0.6,0.3-1.1,0.7-1.7,1c-0.6,0.4-1.1,0.7-1.6,1.2c-0.4,0.4-0.9,0.8-1.3,1.1
	c-0.5,0.4-0.9,0.7-1.4,1.1c-0.8,0.6,0.2,1.9,1,1.3c0.5-0.3,1-0.7,1.5-1.1c0.5-0.4,1-0.7,1.4-1.1c0.5-0.4,1-0.7,1.5-1.1
	c0.5-0.3,1-0.7,1.5-1C415.7,12.7,414.9,11.3,414.1,11.8z"/>
<path class="st0" d="M403.2,19.6c-1,0.8-2.1,1.6-3,2.5c-0.4,0.4-0.8,0.8-1.3,1.2c-0.4,0.4-0.9,0.8-1.3,1.1c-0.8,0.6,0.3,1.9,1,1.3
	c0.5-0.4,0.9-0.7,1.4-1.1c0.5-0.4,0.9-0.8,1.4-1.2c0.9-0.8,1.8-1.7,2.8-2.4C405,20.2,404,18.9,403.2,19.6z"/>
<path class="st0" d="M393,28.2c-0.5,0.5-0.9,0.9-1.4,1.4c-0.2,0.2-0.4,0.5-0.7,0.7c-0.2,0.3-0.4,0.5-0.6,0.8
	c-0.2,0.2-0.3,0.5-0.5,0.7c-0.2,0.2-0.3,0.5-0.5,0.7c-0.2,0.2-0.4,0.5-0.5,0.7c-0.2,0.2-0.4,0.5-0.6,0.7c-0.7,0.8,0.6,1.8,1.3,1
	c0.4-0.5,0.8-0.9,1.2-1.4c0.4-0.5,0.8-0.9,1.1-1.4c0.4-0.5,0.8-0.9,1.2-1.4c0.4-0.5,0.8-0.9,1.2-1.3C394.8,28.6,393.7,27.5,393,28.2
	z"/>
<path class="st0" d="M384.4,38.4c-0.4,0.5-0.8,1.1-1.1,1.6c-0.4,0.5-0.7,1.1-1,1.7c-0.3,0.5-0.5,1-0.8,1.5c-0.3,0.5-0.6,1-0.9,1.5
	c-0.6,0.8,0.8,1.7,1.4,0.9c0.7-1,1.3-2.1,1.9-3.1c0.3-0.5,0.6-1.1,0.9-1.6c0.3-0.5,0.6-1,1-1.5C386.2,38.6,384.9,37.6,384.4,38.4z"
	/>
<path class="st0" d="M377.1,49.6c-0.7,1.1-1.4,2.2-1.9,3.4c-0.5,1-1,2.1-1.6,3.1c-0.5,0.8,0.9,1.7,1.4,0.8c1.3-2.1,2.2-4.3,3.5-6.4
	C379,49.6,377.6,48.7,377.1,49.6z"/>
<path class="st0" d="M370.4,61.1c-0.6,1.1-1.3,2.3-1.8,3.5c-0.2,0.5-0.4,1.1-0.6,1.6c-0.2,0.5-0.4,1.1-0.7,1.6
	c-0.4,0.9,1.1,1.5,1.5,0.6c0.3-0.5,0.5-1.1,0.7-1.6c0.2-0.6,0.5-1.1,0.7-1.7c0.5-1.1,1-2.2,1.6-3.3C372.3,61,370.9,60.2,370.4,61.1z
	"/>
<path class="st0" d="M365.1,73.5l-0.2,0.9l-0.2,0.9c-0.2,0.6-0.3,1.2-0.4,1.9c-0.2,1.1-0.5,2.3-0.9,3.3c-0.3,0.9,1.2,1.5,1.5,0.5
	c0.4-1.1,0.8-2.3,1-3.5c0.1-0.6,0.3-1.2,0.4-1.8c0.1-0.6,0.3-1.2,0.4-1.8C366.9,72.9,365.4,72.4,365.1,73.5z"/>
<path class="st0" d="M361.2,86.1c-0.2,0.6-0.4,1.3-0.5,1.9s-0.3,1.3-0.3,2c-0.1,1.2-0.2,2.4-0.4,3.5c-0.2,1,1.4,1.2,1.6,0.2
	c0.2-1.2,0.3-2.4,0.5-3.6c0.1-0.6,0.2-1.2,0.3-1.8c0.1-0.6,0.2-1.2,0.4-1.8C363,85.6,361.5,85.1,361.2,86.1z"/>
<path class="st0" d="M358.8,99.2c-0.1,0.6-0.3,1.3-0.4,1.9c-0.1,0.6-0.2,1.3-0.3,1.9c-0.1,1.1-0.2,2.3-0.5,3.5
	c-0.1,0.5,0.2,0.8,0.6,0.9c0.4,0.1,0.8-0.1,1-0.6c0.2-1.2,0.4-2.4,0.6-3.6l0.3-1.8c0.1-0.6,0.2-1.2,0.3-1.8c0.1-0.5-0.3-0.8-0.7-0.9
	C359.4,98.5,358.9,98.7,358.8,99.2z"/>
<path class="st0" d="M356.7,112.4c0,0.7-0.1,1.3-0.1,1.9c0,0.6,0,1.3,0,2c0.1,1.1,0.1,2.4,0.1,3.5c0,1,1.6,1,1.6,0
	c0-1.2,0-2.4,0-3.6c0-0.6,0-1.2,0-1.8c0-0.6,0-1.2,0-1.8C358.3,111.5,356.7,111.4,356.7,112.4z"/>
<path class="st0" d="M356.7,125.8c0.1,0.7,0.2,1.3,0.3,2c0.1,0.6,0.2,1.3,0.4,1.9c0.3,1.1,0.6,2.3,0.7,3.4c0.1,1,1.7,0.7,1.6-0.2
	c-0.1-1.2-0.4-2.4-0.6-3.6l-0.4-1.8c-0.1-0.6-0.2-1.2-0.3-1.8c-0.1-0.5-0.5-0.7-0.9-0.7C357,125,356.6,125.3,356.7,125.8z"/>
<path class="st0" d="M358.8,139c0.2,1.2,0.3,2.5,0.7,3.8c0.3,1.1,0.6,2.3,1,3.5c0.2,0.5,0.6,0.6,1,0.4c0.4-0.2,0.7-0.5,0.5-1
	c-0.2-0.5-0.3-1.1-0.5-1.6c-0.1-0.6-0.3-1.1-0.4-1.7c-0.3-1.2-0.5-2.4-0.7-3.6c-0.1-0.5-0.5-0.6-0.9-0.6
	C359,138.1,358.7,138.5,358.8,139z"/>
<path class="st0" d="M362.8,151.7c0.3,0.5,0.5,1.2,0.8,1.8c0.3,0.6,0.6,1.2,0.9,1.7c0.3,0.5,0.6,1,0.9,1.5c0.3,0.5,0.6,1,0.8,1.5
	c0.2,0.5,0.7,0.5,1,0.3c0.4-0.2,0.6-0.6,0.4-1c-0.2-0.5-0.5-1.1-0.8-1.6c-0.3-0.5-0.6-1.1-0.9-1.6c-0.3-0.5-0.6-1.1-0.9-1.6
	c-0.3-0.5-0.5-1.1-0.8-1.7c-0.2-0.5-0.7-0.5-1.1-0.3C362.9,150.9,362.6,151.3,362.8,151.7z"/>
<path class="st0" d="M368.9,163.6l0.5,0.8l0.6,0.8c0.4,0.5,0.8,1.1,1.2,1.5c0.4,0.4,0.8,0.8,1.2,1.3c0.4,0.4,0.8,0.9,1.2,1.3
	c0.3,0.4,0.8,0.3,1.1,0c0.3-0.3,0.4-0.7,0.1-1.1c-0.4-0.5-0.8-0.9-1.2-1.4c-0.4-0.5-0.8-0.9-1.2-1.4l-0.6-0.7
	c-0.2-0.2-0.4-0.5-0.6-0.7c-0.2-0.2-0.4-0.5-0.5-0.7c-0.2-0.3-0.3-0.5-0.5-0.8C369.8,161.9,368.4,162.7,368.9,163.6z"/>
<path class="st0" d="M377.7,173.8c0.5,0.4,1,0.9,1.5,1.2c0.5,0.4,1,0.8,1.5,1.1c0.9,0.6,1.9,1.3,2.7,2.1c0.7,0.7,1.8-0.6,1.1-1.2
	c-0.9-0.8-1.8-1.6-2.8-2.3c-0.5-0.4-1-0.7-1.5-1.1c-0.5-0.4-1-0.7-1.5-1.1c-0.4-0.3-0.8-0.2-1.1,0.1
	C377.4,173,377.3,173.5,377.7,173.8z"/>
<path class="st0" d="M388.4,181.9c1.2,0.6,2.3,1.2,3.4,1.8c0.2,0.1,0.5,0.2,0.8,0.4c0.3,0.1,0.5,0.3,0.8,0.4c0.5,0.3,1,0.5,1.5,0.8
	c0.9,0.5,1.6-0.9,0.8-1.4c-0.5-0.3-1-0.6-1.6-0.9c-0.5-0.3-1.1-0.6-1.6-0.9c-1.1-0.6-2.3-1-3.3-1.6
	C388.3,180,387.5,181.4,388.4,181.9z"/>
<path class="st0" d="M400.1,188.2c1.2,0.5,2.4,1.1,3.6,1.4c1.1,0.3,2.3,0.6,3.3,1c0.9,0.4,1.4-1.2,0.5-1.5c-1.1-0.4-2.3-0.8-3.4-1.2
	c-0.6-0.2-1.2-0.4-1.7-0.6c-0.6-0.2-1.1-0.4-1.7-0.7C399.9,186.3,399.2,187.8,400.1,188.2z"/>
<path class="st0" d="M412.7,192.7c1.3,0.3,2.5,0.7,3.8,0.8c1.1,0.1,2.3,0.3,3.4,0.5c1,0.2,1.3-1.4,0.3-1.6c-2.4-0.6-4.8-0.7-7.2-1.4
	C412.2,190.8,411.8,192.4,412.7,192.7z"/>
<path class="st0" d="M425.8,195.4c1.3,0.2,2.6,0.5,3.9,0.5c1.1,0,2.3,0.1,3.5,0.3c1,0.1,1.2-1.5,0.2-1.6c-2.4-0.4-4.8-0.4-7.3-0.8
	C425.1,193.6,424.8,195.2,425.8,195.4z"/>
<path class="st0" d="M439,197c0.7,0,1.3,0.1,2,0.1c0.7,0,1.3,0,2-0.1c1.1-0.1,2.3-0.3,3.5-0.3c1,0,0.9-1.6,0-1.6
	c-1.2,0-2.4,0.1-3.6,0.2c-0.6,0-1.2,0.1-1.8,0.1c-0.6,0-1.2,0-1.8,0c-0.5,0-0.8,0.4-0.8,0.8C438.3,196.6,438.5,197,439,197z"/>
<path class="st0" d="M452.4,196.7c1.3-0.1,2.6-0.1,3.9-0.3c1.1-0.2,2.3-0.4,3.4-0.4c1,0,0.9-1.6-0.1-1.6c-2.4,0-4.9,0.5-7.3,0.7
	C451.3,195.2,451.4,196.8,452.4,196.7z"/>
<path class="st0" d="M465.6,196c0.6-0.1,1.3-0.1,2-0.1c0.6-0.1,1.3-0.1,1.9-0.3c0.6-0.1,1.1-0.2,1.7-0.4c0.6-0.1,1.2-0.2,1.7-0.3
	c1-0.1,0.8-1.7-0.2-1.6c-0.6,0.1-1.2,0.1-1.8,0.2c-0.6,0.1-1.2,0.2-1.8,0.3c-0.6,0.1-1.2,0.2-1.8,0.3c-0.6,0.1-1.2,0.1-1.8,0.2
	c-0.5,0-0.7,0.5-0.7,0.9C464.8,195.7,465.1,196.1,465.6,196z"/>
<path class="st0" d="M478.8,194.3c1.3-0.2,2.6-0.4,3.8-0.8c1.1-0.3,2.2-0.7,3.4-0.9c1-0.2,0.7-1.8-0.3-1.6c-2.4,0.4-4.7,1.2-7.1,1.6
	C477.6,192.9,477.9,194.5,478.8,194.3z"/>
<path class="st0" d="M491.9,191.8c1.3-0.3,2.6-0.5,3.8-0.9c1.1-0.4,2.2-0.7,3.3-0.9c1-0.2,0.6-1.8-0.4-1.6c-2.4,0.5-4.7,1.3-7.1,1.8
	C490.6,190.4,490.9,191.9,491.9,191.8z"/>
<path class="st0" d="M504.8,188.7c0.6-0.2,1.3-0.3,1.9-0.5c0.6-0.2,1.2-0.4,1.8-0.7c0.5-0.2,1.1-0.5,1.6-0.7
	c0.5-0.2,1.1-0.4,1.6-0.6c1-0.3,0.3-1.8-0.6-1.5c-0.6,0.2-1.1,0.4-1.7,0.6c-0.6,0.2-1.1,0.4-1.7,0.7c-0.6,0.2-1.1,0.5-1.7,0.7
	c-0.6,0.2-1.1,0.4-1.7,0.6C503.4,187.4,503.9,189,504.8,188.7z"/>
<path class="st0" d="M517.4,184.1c1.2-0.5,2.4-1,3.5-1.6c1-0.6,2-1.1,3.1-1.5c0.9-0.3,0.3-1.9-0.6-1.5c-2.3,0.9-4.4,2.2-6.6,3.1
	C515.8,183,516.5,184.5,517.4,184.1z"/>
<path class="st0" d="M529.6,179c1.2-0.5,2.4-1,3.5-1.7c1-0.6,2-1.2,3-1.7c0.9-0.4,0.2-1.9-0.7-1.5c-2.2,1-4.2,2.4-6.5,3.4
	c-0.4,0.2-0.5,0.7-0.4,1C528.7,178.9,529.1,179.2,529.6,179z"/>
<path class="st0" d="M541.5,173.2c0.6-0.3,1.2-0.6,1.8-0.9c0.6-0.3,1.2-0.6,1.7-1c0.5-0.3,1-0.6,1.5-0.9c0.5-0.3,1-0.6,1.5-0.9
	c0.9-0.4,0.1-1.9-0.8-1.4c-0.5,0.3-1.1,0.6-1.6,0.9c-0.5,0.3-1.1,0.6-1.6,0.9c-0.5,0.3-1,0.6-1.6,0.9c-0.5,0.3-1.1,0.6-1.6,0.9
	C539.9,172.1,540.6,173.6,541.5,173.2z"/>
<path class="st0" d="M553.3,166.9c0.6-0.3,1.1-0.7,1.7-1c0.6-0.3,1.1-0.7,1.6-1.1c0.5-0.3,0.9-0.7,1.4-1c0.5-0.3,1-0.7,1.4-1
	c0.9-0.5,0-1.9-0.9-1.4c-0.5,0.3-1,0.6-1.5,1c-0.5,0.3-1,0.7-1.5,1c-0.5,0.4-1,0.7-1.5,1c-0.5,0.3-1,0.7-1.5,1
	C551.6,166,552.4,167.4,553.3,166.9z"/>
<path class="st0" d="M564.5,159.8c1.1-0.7,2.2-1.4,3.2-2.3c0.9-0.8,1.8-1.5,2.7-2.2c0.8-0.6-0.1-1.9-0.9-1.3c-1,0.7-2,1.4-2.9,2.2
	c-1,0.8-1.9,1.5-2.9,2.2c-0.4,0.3-0.4,0.8-0.2,1.1C563.7,159.9,564.1,160.1,564.5,159.8z"/>
<path class="st0" d="M575.3,152.1c1-0.8,2.1-1.5,3.1-2.4c0.8-0.8,1.7-1.6,2.6-2.3c0.8-0.6-0.2-1.9-1-1.3c-1,0.7-1.9,1.5-2.8,2.3
	c-0.5,0.4-0.9,0.8-1.4,1.2c-0.5,0.4-0.9,0.8-1.4,1.1C573.6,151.4,574.5,152.7,575.3,152.1z"/>
<path class="st0" d="M585.9,144c0.5-0.4,1-0.8,1.5-1.2c0.5-0.4,1-0.8,1.4-1.3c0.8-0.8,1.7-1.7,2.5-2.4c0.8-0.6-0.3-1.9-1-1.2
	c-0.9,0.8-1.8,1.6-2.7,2.4c-0.9,0.8-1.8,1.7-2.8,2.4C584.1,143.3,585.1,144.6,585.9,144z"/>
<path class="st0" d="M596,135.4c0.5-0.4,1-0.9,1.5-1.3c0.5-0.4,0.9-0.9,1.4-1.4c0.4-0.4,0.8-0.9,1.2-1.3c0.4-0.4,0.8-0.8,1.2-1.2
	c0.7-0.7-0.4-1.8-1.1-1.2c-0.4,0.4-0.9,0.8-1.3,1.3c-0.4,0.4-0.8,0.9-1.3,1.3l-1.3,1.3c-0.4,0.4-0.9,0.9-1.3,1.3
	C594.2,134.9,595.3,136.1,596,135.4z"/>
<path class="st0" d="M605.6,126.2c0.4-0.5,0.9-0.9,1.4-1.4c0.4-0.5,0.9-1,1.2-1.5c0.3-0.5,0.7-0.9,1-1.4c0.4-0.5,0.7-0.9,1.1-1.3
	c0.7-0.7-0.6-1.8-1.2-1.1c-0.4,0.4-0.8,0.9-1.2,1.4c-0.4,0.5-0.8,0.9-1.1,1.4c-0.4,0.5-0.7,1-1.1,1.4c-0.4,0.5-0.8,0.9-1.2,1.4
	c-0.3,0.4-0.2,0.8,0.1,1.1C604.8,126.4,605.3,126.5,605.6,126.2z"/>
<path class="st0" d="M614.3,116c0.4-0.5,0.8-1,1.2-1.6c0.4-0.5,0.8-1.1,1.1-1.6c0.3-0.5,0.6-1,0.9-1.5c0.3-0.5,0.6-1,0.9-1.5
	c0.3-0.4,0.1-0.8-0.3-1c-0.4-0.2-0.8-0.2-1.1,0.2c-0.3,0.5-0.6,1-1,1.5c-0.3,0.5-0.6,1-0.9,1.6c-0.3,0.5-0.6,1-1,1.5
	c-0.3,0.5-0.7,1-1,1.5C612.4,115.8,613.7,116.8,614.3,116z"/>
<path class="st0" d="M621.4,104.7c0.3-0.6,0.6-1.1,0.9-1.6c0.3-0.5,0.7-1,1-1.6c0.6-0.9,1.3-1.9,2-2.8c0.3-0.4,0.1-0.8-0.2-1.1
	c-0.3-0.2-0.8-0.3-1.1,0.1c-0.7,0.9-1.5,1.9-2.2,2.9c-0.3,0.5-0.7,1.1-1,1.6c-0.3,0.6-0.6,1.1-0.9,1.7
	C619.5,104.8,620.9,105.5,621.4,104.7z"/>
<path class="st0" d="M628.4,93.4c0.5-1.2,1-2.4,1.3-3.7c0.1-0.6,0.3-1.2,0.4-1.7c0.1-0.6,0.2-1.2,0.3-1.8c0.1-0.5-0.3-0.8-0.7-0.8
	c-0.4,0-0.8,0.2-0.9,0.6c-0.1,0.6-0.2,1.2-0.3,1.7c-0.1,0.6-0.3,1.2-0.5,1.7c-0.3,1.2-0.7,2.3-1.2,3.4
	C626.5,93.7,628,94.3,628.4,93.4z"/>
<path class="st0" d="M214.9,43.5c0-6.9-5.6-12.5-12.5-12.5c-6.9,0-12.5,5.6-12.5,12.5c0,0-0.1,0.6,0.2,2.2c0.1,0.8,0.4,1.7,0.7,2.4
	c1.3,3.7,4.4,10.1,11.6,20.1c7.3-10,10.3-16.4,11.6-20.1c0.3-0.8,0.5-1.6,0.7-2.4C215,44.1,214.9,43.5,214.9,43.5z M202.4,51.1
	c-4.2,0-7.6-3.4-7.6-7.6c0-4.2,3.4-7.6,7.6-7.6c4.2,0,7.6,3.4,7.6,7.6C210,47.7,206.6,51.1,202.4,51.1z"/>
<path class="st0" d="M205.2,73.5c0,1.5-1.3,2.8-2.8,2.8c-1.5,0-2.8-1.3-2.8-2.8c0-1.5,1.3-2.8,2.8-2.8C204,70.7,205.2,72,205.2,73.5
	z"/>
<path class="st0" d="M20.2,368.9c0.1-0.3,0.2-0.6,0.3-0.9c0.1-0.3,0.2-0.5,0.3-0.9c0.2-0.6,0.5-1.2,0.7-1.8c0.2-0.5,0.4-1.1,0.6-1.6
	c0.2-0.5,0.5-1.1,0.7-1.6c0.2-0.4,0-0.8-0.4-1s-0.8-0.2-1.1,0.3c-0.6,1.1-1.1,2.2-1.5,3.4l-0.6,1.7c-0.1,0.3-0.2,0.6-0.3,0.9
	c-0.1,0.3-0.2,0.6-0.3,0.9c-0.1,0.5,0.2,0.8,0.6,0.9C19.6,369.5,20,369.3,20.2,368.9z"/>
<path class="st0" d="M25.9,357.3c0.3-0.5,0.7-1,1.1-1.6c0.4-0.5,0.7-1,1.1-1.6c0.3-0.5,0.6-1,1-1.4c0.3-0.5,0.7-0.9,1.1-1.4
	c0.7-0.7-0.6-1.8-1.2-1c-0.4,0.5-0.8,0.9-1.2,1.4c-0.4,0.5-0.7,1-1.1,1.5l-0.5,0.8l-0.5,0.8l-1,1.6c-0.3,0.4-0.1,0.9,0.3,1.1
	C25.2,357.7,25.7,357.7,25.9,357.3z"/>
<path class="st0" d="M34.1,347.1c0.4-0.5,0.9-0.9,1.3-1.4c0.4-0.5,0.9-0.9,1.3-1.4c0.2-0.2,0.4-0.4,0.5-0.6c0.2-0.2,0.4-0.4,0.6-0.6
	c0.4-0.4,0.8-0.8,1.3-1.1c0.4-0.3,0.3-0.8,0.1-1.1c-0.2-0.3-0.7-0.5-1.1-0.2c-0.5,0.4-1,0.8-1.4,1.2c-0.2,0.2-0.4,0.4-0.7,0.7
	l-0.6,0.7c-0.4,0.5-0.8,0.9-1.2,1.4c-0.4,0.5-0.8,0.9-1.2,1.4C32.2,346.7,33.5,347.8,34.1,347.1z"/>
<path class="st0" d="M44,338.8l0.8-0.4l0.4-0.2l0.4-0.2c0.6-0.3,1.2-0.6,1.7-0.9c1-0.6,2-1.2,3.1-1.6c0.9-0.4,0.3-1.9-0.7-1.5
	c-1.1,0.5-2.2,1-3.3,1.6l-1.6,0.9c-0.5,0.3-1.1,0.6-1.7,0.9C42.3,337.9,43.2,339.3,44,338.8z"/>
<path class="st0" d="M56,333.6c1.2-0.4,2.4-0.5,3.6-0.8c1.1-0.3,2.3-0.5,3.4-0.6c0.5,0,0.7-0.5,0.7-0.9c0-0.4-0.3-0.8-0.8-0.7
	c-1.2,0.1-2.4,0.3-3.7,0.5c-0.6,0.1-1.2,0.3-1.8,0.4c-0.6,0.2-1.2,0.3-1.8,0.5c-0.5,0.2-0.6,0.6-0.4,1
	C55.2,333.5,55.5,333.7,56,333.6z"/>
<path class="st0" d="M68.8,331.6c0.5,0,1.1,0.1,1.7,0.2l0.5,0.1c0.2,0,0.3,0.1,0.5,0.1c0.3,0,0.7,0.1,1,0.1c1.1,0,2.3,0.1,3.4,0.4
	c0.5,0.1,0.8-0.2,0.9-0.6c0.1-0.4,0-0.9-0.5-1c-0.6-0.2-1.2-0.3-1.9-0.3c-0.6-0.1-1.2-0.1-1.8-0.2c-0.3,0-0.6-0.1-0.9-0.1
	c-0.3,0-0.6-0.1-0.9-0.1c-0.6-0.1-1.3-0.1-2-0.1c-0.6,0-0.8,0.5-0.7,0.9C68.1,331.2,68.4,331.6,68.8,331.6z"/>
<path class="st0" d="M81.2,334.4c0.6,0.3,1.1,0.6,1.7,0.8c0.6,0.3,1.1,0.6,1.7,0.9c0.5,0.2,1,0.5,1.5,0.8c0.5,0.3,0.9,0.6,1.4,1
	c0.4,0.3,0.8,0.2,1.1-0.1c0.3-0.3,0.3-0.8,0-1.1c-0.2-0.2-0.5-0.4-0.7-0.6c-0.3-0.2-0.5-0.4-0.8-0.6c-0.5-0.3-1.1-0.7-1.6-1
	c-0.6-0.3-1.1-0.6-1.7-0.8c-0.6-0.3-1.1-0.5-1.7-0.8c-0.5-0.2-0.9,0.1-1,0.4C80.7,333.8,80.7,334.2,81.2,334.4z"/>
<path class="st0" d="M91.2,342.2c0.4,0.5,0.8,1,1.1,1.5c0.2,0.3,0.4,0.5,0.6,0.8c0.2,0.3,0.4,0.5,0.6,0.7c0.4,0.4,0.7,0.9,1,1.4
	c0.3,0.5,0.6,1,0.9,1.5c0.4,0.9,1.9,0.1,1.4-0.8c-0.3-0.5-0.6-1.1-0.9-1.6c-0.3-0.5-0.7-1-1.1-1.5l-0.6-0.7l-0.6-0.7
	c-0.4-0.5-0.8-1-1.2-1.5c-0.3-0.4-0.8-0.3-1.1-0.1C91,341.4,90.9,341.9,91.2,342.2z"/>
<path class="st0" d="M97.7,353.4c0.3,0.6,0.5,1.2,0.7,1.8c0.2,0.6,0.5,1.2,0.8,1.8c0.5,1,1,2.1,1.4,3.2c0.2,0.5,0.6,0.6,1,0.4
	c0.4-0.1,0.7-0.5,0.5-1c-0.4-1.2-0.9-2.3-1.4-3.4l-0.8-1.7c-0.3-0.6-0.5-1.1-0.8-1.7C98.8,351.9,97.3,352.5,97.7,353.4z"/>
<path class="st0" d="M102.2,365.8c0.2,0.6,0.3,1.2,0.5,1.9c0.2,0.6,0.3,1.2,0.5,1.8c0.2,0.5,0.4,1.1,0.5,1.6
	c0.1,0.6,0.3,1.1,0.3,1.7c0.1,1,1.7,0.7,1.6-0.3c-0.1-0.6-0.2-1.2-0.3-1.8c-0.1-0.6-0.3-1.2-0.5-1.8c-0.2-0.6-0.4-1.2-0.5-1.8
	c-0.2-0.6-0.4-1.2-0.5-1.8c-0.1-0.5-0.6-0.6-1-0.5C102.4,364.9,102.1,365.3,102.2,365.8z"/>
<path class="st0" d="M104.6,378.7c0.2,1.3,0.3,2.6,0.7,3.8c0.2,0.6,0.3,1.1,0.4,1.7c0.1,0.6,0.3,1.1,0.3,1.7
	c0.1,0.5,0.5,0.7,0.9,0.6c0.4-0.1,0.8-0.3,0.7-0.9c0-0.3-0.1-0.6-0.1-0.9c-0.1-0.3-0.1-0.6-0.2-0.9c-0.1-0.6-0.3-1.2-0.4-1.8
	c-0.3-1.2-0.6-2.4-0.7-3.6C106.1,377.4,104.5,377.7,104.6,378.7z"/>
<path class="st0" d="M106.3,391.7c0.1,1.3,0.2,2.6,0.6,3.9c0.2,0.6,0.3,1.1,0.4,1.6c0.1,0.5,0.2,1.1,0.2,1.7c0,1,1.6,0.9,1.6-0.1
	c0-0.6,0-1.3-0.2-1.9c0-0.3-0.1-0.6-0.2-1l-0.2-0.9c-0.1-0.6-0.3-1.2-0.4-1.8c-0.1-0.6-0.2-1.2-0.2-1.8
	C107.9,390.6,106.3,390.7,106.3,391.7z"/>
<path class="st0" d="M107.9,404.9c0.1,0.6,0.2,1.2,0.2,1.9l0.1,0.9c0,0.3,0,0.6,0.1,0.9c0.1,0.6,0.1,1.2,0.2,1.8
	c0.1,0.6,0.1,1.2,0.1,1.8c0,1,1.7,0.9,1.6-0.1c0-0.6-0.1-1.2-0.1-1.8c0-0.6-0.1-1.2-0.1-1.8c0-0.6-0.1-1.3-0.2-1.9
	c-0.1-0.6-0.2-1.3-0.3-1.9C109.4,403.7,107.8,404,107.9,404.9z"/>
<path class="st0" d="M108.9,418.1c0,0.6,0.1,1.3,0.1,1.9c0,0.6,0.1,1.3,0.2,2c0.1,0.6,0.2,1.1,0.3,1.7c0.1,0.6,0.2,1.2,0.2,1.7
	c0.1,1,1.7,0.8,1.6-0.2c0-0.6-0.1-1.2-0.2-1.8c-0.1-0.6-0.2-1.2-0.3-1.8c-0.1-0.6-0.2-1.2-0.2-1.8c-0.1-0.6-0.1-1.2-0.2-1.9
	C110.4,417,108.8,417.1,108.9,418.1z"/>
<path class="st0" d="M110.4,431.3c0.2,1.3,0.4,2.6,0.8,3.8c0.3,1.1,0.7,2.2,0.9,3.4c0.2,1,1.8,0.7,1.6-0.3c-0.4-2.4-1.2-4.7-1.6-7.2
	C111.8,430.1,110.2,430.4,110.4,431.3z"/>
<path class="st0" d="M112.9,444.4c0.3,1.3,0.5,2.6,1,3.8c0.4,1.1,0.9,2.2,1.2,3.3c0.2,0.5,0.6,0.6,1,0.4c0.4-0.1,0.7-0.5,0.5-1
	c-0.7-2.3-1.7-4.5-2.2-6.9C114.3,443.1,112.7,443.4,112.9,444.4z"/>
<path class="st0" d="M117.5,457.1c0.7,1.1,1.3,2.3,2,3.3c0.3,0.5,0.7,0.9,1,1.4c0.3,0.5,0.6,1,0.8,1.5c0.5,0.9,1.9,0.1,1.4-0.8
	c-0.3-0.5-0.6-1.1-0.9-1.6c-0.3-0.5-0.7-1.1-1-1.6c-0.7-1-1.4-2-2-3.1C118.5,455.4,117,456.2,117.5,457.1z"/>
<path class="st0" d="M124.5,468.5c0.4,0.5,0.8,1,1.3,1.5c0.2,0.2,0.5,0.5,0.7,0.7c0.2,0.2,0.5,0.5,0.7,0.7c0.4,0.4,0.9,0.8,1.3,1.1
	c0.5,0.4,0.9,0.8,1.3,1.2c0.7,0.7,1.8-0.5,1.1-1.2c-0.4-0.4-0.9-0.8-1.3-1.2c-0.5-0.4-0.9-0.8-1.3-1.2c-0.4-0.4-0.9-0.8-1.3-1.3
	c-0.4-0.4-0.8-0.9-1.2-1.4C125.2,466.7,123.9,467.7,124.5,468.5z"/>
<path class="st0" d="M134.2,477.8c1,0.8,2,1.6,3.1,2.3c0.5,0.3,1,0.6,1.5,0.9c0.2,0.2,0.5,0.3,0.7,0.5c0.2,0.2,0.5,0.3,0.7,0.5
	c0.2,0.2,0.4,0.2,0.6,0.1c0.2-0.1,0.3-0.2,0.5-0.4c0.1-0.2,0.2-0.4,0.2-0.6c0-0.2-0.1-0.4-0.3-0.5c-0.2-0.2-0.5-0.3-0.7-0.5
	c-0.2-0.2-0.5-0.4-0.7-0.5c-0.5-0.3-1-0.7-1.5-1c-1-0.7-2-1.3-3-2.1C134.5,475.9,133.4,477.1,134.2,477.8z"/>
<path class="st0" d="M145.5,485.1c0.6,0.3,1.2,0.5,1.8,0.7c0.3,0.1,0.6,0.2,0.9,0.3c0.3,0.1,0.6,0.2,1,0.2c0.6,0.1,1.1,0.3,1.7,0.4
	c0.6,0.1,1.1,0.3,1.7,0.5c1,0.3,1.4-1.3,0.5-1.6c-0.6-0.2-1.2-0.4-1.7-0.5c-0.6-0.2-1.2-0.3-1.7-0.5c-0.6-0.2-1.2-0.3-1.7-0.5
	c-0.6-0.2-1.1-0.4-1.7-0.6C145.2,483.2,144.6,484.7,145.5,485.1z"/>
<path class="st0" d="M158.3,489.1c0.6,0.2,1.3,0.3,1.9,0.5c0.6,0.2,1.3,0.3,1.9,0.4c1.1,0.1,2.4,0.3,3.5,0.5
	c0.5,0.1,0.8-0.3,0.8-0.7c0-0.4-0.1-0.8-0.6-0.9c-1.2-0.2-2.4-0.4-3.5-0.6c-0.6-0.1-1.2-0.2-1.8-0.3c-0.6-0.1-1.2-0.3-1.8-0.4
	C157.7,487.3,157.3,488.8,158.3,489.1z"/>
<path class="st0" d="M171.5,491.1c1.2,0.1,2.4,0.3,3.7,0.4c1.2,0.1,2.4,0.2,3.6,0.2c0.5,0,0.8-0.4,0.8-0.8c0-0.4-0.2-0.8-0.7-0.9
	c-0.6,0-1.2-0.1-1.7-0.1c-0.6-0.1-1.2-0.1-1.8-0.2c-1.2-0.1-2.5-0.3-3.7-0.3c-0.5,0-0.8,0.4-0.8,0.8c0,0.2,0.1,0.4,0.2,0.6
	C171.1,491,171.3,491.1,171.5,491.1z"/>
<path class="st0" d="M184.8,491.6c0.6-0.1,1.3-0.2,1.9-0.3c0.6-0.1,1.3-0.2,1.9-0.4c1.1-0.3,2.3-0.5,3.4-0.6c1-0.1,0.8-1.7-0.2-1.6
	c-1.2,0.1-2.4,0.3-3.6,0.6c-1.2,0.2-2.4,0.5-3.6,0.7C183.7,490.1,183.8,491.7,184.8,491.6z"/>
<path class="st0" d="M198,489.7c0.3-0.1,0.6-0.1,0.9-0.2l0.9-0.1c0.6-0.1,1.3-0.2,1.9-0.3c1.1-0.2,2.3-0.4,3.4-0.6
	c0.5,0,0.7-0.5,0.6-0.9c-0.1-0.4-0.4-0.8-0.8-0.7c-1.2,0.1-2.4,0.3-3.6,0.5c-0.6,0.1-1.2,0.2-1.8,0.3l-1.8,0.3
	C196.7,488.3,197,489.9,198,489.7z"/>
<path class="st0" d="M211.1,487.5c1.3-0.4,2.5-0.8,3.7-1.3c1-0.5,2.1-0.9,3.2-1.3c1-0.3,0.5-1.8-0.5-1.5c-1.2,0.3-2.3,0.8-3.5,1.2
	c-1.1,0.5-2.3,1-3.4,1.3c-0.5,0.2-0.6,0.6-0.5,1C210.3,487.3,210.7,487.7,211.1,487.5z"/>
<path class="st0" d="M223.7,483.4c1.2-0.4,2.5-0.7,3.7-1.3c1-0.5,2.1-0.9,3.2-1.3c0.5-0.1,0.6-0.6,0.4-1c-0.1-0.4-0.5-0.7-1-0.5
	c-2.3,0.7-4.5,1.8-6.9,2.5C222.3,482.1,222.8,483.7,223.7,483.4z"/>
<path class="st0" d="M236.3,479.1c0.6-0.2,1.2-0.5,1.8-0.7c0.6-0.2,1.2-0.5,1.8-0.9c0.5-0.3,1-0.6,1.5-0.9c0.5-0.3,1-0.6,1.6-0.8
	c0.9-0.4,0.2-1.9-0.7-1.5c-0.5,0.2-1.1,0.5-1.6,0.8c-0.5,0.3-1.1,0.6-1.6,0.8c-0.5,0.3-1.1,0.6-1.6,0.8c-0.5,0.3-1.1,0.5-1.7,0.7
	C234.8,477.9,235.4,479.4,236.3,479.1z"/>
<path class="st0" d="M248.3,473.2c1.1-0.6,2.3-1.2,3.4-2c0.9-0.7,1.9-1.3,2.9-1.8c0.9-0.4,0.1-1.9-0.8-1.4c-2.2,1.1-4.2,2.6-6.3,3.8
	C246.7,472.3,247.5,473.7,248.3,473.2z"/>
<path class="st0" d="M260,466.8c1.1-0.7,2.3-1.3,3.3-2.1c0.9-0.7,1.8-1.5,2.8-2.1c0.8-0.6-0.1-1.9-0.9-1.3c-2,1.3-3.9,2.9-6,4.1
	C258.3,465.9,259.1,467.3,260,466.8z"/>
<path class="st0" d="M271,459.5c1.1-0.7,2.2-1.3,3.2-2.2c0.9-0.7,1.8-1.5,2.8-2.1c0.4-0.3,0.4-0.7,0.2-1.1c-0.2-0.3-0.7-0.5-1.1-0.3
	c-2,1.3-3.9,2.9-6,4.2C269.3,458.7,270.2,460,271,459.5z"/>
<path class="st0" d="M281.9,451.6c1-0.9,1.9-1.8,2.7-2.9c0.7-0.9,1.4-1.9,2.2-2.7c0.7-0.7-0.5-1.8-1.2-1.1c-0.9,0.9-1.6,1.8-2.4,2.7
	c-0.8,0.9-1.6,1.9-2.4,2.7c-0.4,0.3-0.3,0.8,0,1.1C281.1,451.9,281.5,452,281.9,451.6z"/>
<path class="st0" d="M291.1,442.1c0.9-0.9,1.9-1.8,2.7-2.8c0.7-0.9,1.4-1.9,2.2-2.7c0.7-0.7-0.5-1.8-1.2-1.1
	c-1.7,1.7-3.1,3.7-4.8,5.5C289.3,441.7,290.4,442.8,291.1,442.1z"/>
<path class="st0" d="M300.1,432.2c0.8-1,1.6-2.1,2.3-3.2c0.6-1,1.2-2,1.8-3c0.6-0.8-0.7-1.7-1.3-0.9c-1.4,2-2.6,4.2-4,6.1
	c-0.3,0.4-0.1,0.8,0.2,1.1C299.3,432.5,299.8,432.6,300.1,432.2z"/>
<path class="st0" d="M307.8,421.4c0.4-0.5,0.8-1.1,1.1-1.7c0.2-0.3,0.3-0.6,0.5-0.9c0.2-0.3,0.3-0.6,0.4-0.9
	c0.2-0.5,0.5-1.1,0.7-1.6c0.2-0.5,0.5-1.1,0.7-1.6c0.2-0.4,0-0.8-0.4-1c-0.4-0.2-0.8-0.1-1.1,0.3c-0.1,0.3-0.3,0.5-0.4,0.8l-0.4,0.8
	c-0.2,0.5-0.5,1.1-0.8,1.6c-0.3,0.5-0.5,1.1-0.8,1.6c-0.3,0.5-0.6,1-1,1.5C305.9,421.2,307.2,422.2,307.8,421.4z"/>
<path class="st0" d="M313.8,409.3c0.2-0.6,0.4-1.2,0.6-1.9c0.2-0.6,0.4-1.3,0.5-1.9c0.2-1.1,0.4-2.3,0.7-3.4c0.3-1-1.3-1.4-1.6-0.4
	c-0.3,1.2-0.6,2.4-0.8,3.5c-0.1,0.6-0.3,1.2-0.4,1.8c-0.1,0.6-0.3,1.2-0.5,1.8C311.9,409.7,313.4,410.2,313.8,409.3z"/>
<path class="st0" d="M317.1,396.3c0.1-0.6,0.2-1.3,0.3-2c0.1-0.7,0.1-1.3,0.1-2c0-0.6,0-1.2,0-1.8c0-0.6,0-1.2,0.1-1.8
	c0-1-1.6-1-1.6,0c0,0.6-0.1,1.2-0.1,1.8c0,0.6,0,1.2,0,1.8l-0.1,1.8l0,0.5l-0.1,0.5c0,0.3-0.1,0.6-0.1,0.9
	C315.3,397,316.9,397.3,317.1,396.3z"/>
<path class="st0" d="M317.6,382.8c-0.1-0.7-0.2-1.3-0.2-2c0-0.3-0.1-0.7-0.1-1c-0.1-0.3-0.2-0.6-0.2-1c-0.2-0.6-0.3-1.1-0.5-1.7
	c-0.1-0.6-0.3-1.1-0.4-1.7c-0.2-1-1.8-0.6-1.6,0.4c0.1,0.3,0.1,0.6,0.2,0.9c0.1,0.3,0.2,0.6,0.2,0.9c0.1,0.6,0.3,1.2,0.4,1.8
	c0.1,0.3,0.2,0.6,0.2,0.9l0.2,0.9c0.1,0.6,0.2,1.2,0.3,1.8C316,384,317.6,383.9,317.6,382.8z"/>
<path class="st0" d="M314.6,369.7l-0.3-0.9l-0.2-0.5l-0.2-0.5c-0.3-0.6-0.6-1.2-0.9-1.8c-0.3-0.5-0.6-1-0.9-1.5
	c-0.3-0.5-0.6-1-0.8-1.5c-0.2-0.4-0.7-0.5-1.1-0.3c-0.4,0.2-0.6,0.6-0.4,1c0.3,0.5,0.5,1.1,0.8,1.6l0.4,0.8c0.2,0.3,0.3,0.5,0.4,0.8
	l0.8,1.6c0.1,0.3,0.3,0.5,0.4,0.8c0.1,0.3,0.2,0.6,0.3,0.8C313.4,371.2,314.9,370.7,314.6,369.7z"/>
<path class="st0" d="M308.3,357.8c-0.4-0.5-0.8-1.1-1.2-1.6c-0.4-0.5-0.8-1-1.3-1.5c-0.8-0.8-1.7-1.7-2.4-2.5
	c-0.6-0.8-1.8,0.3-1.2,1.1c0.8,0.9,1.6,1.8,2.4,2.7c0.4,0.4,0.8,0.9,1.2,1.4c0.4,0.5,0.8,0.9,1.1,1.4
	C307.5,359.6,308.9,358.6,308.3,357.8z"/>
<path class="st0" d="M299.4,347.7c-1-0.9-2-1.8-3.2-2.4c-0.5-0.3-1-0.6-1.6-0.9c-0.5-0.3-1-0.6-1.5-0.9c-0.4-0.3-0.8,0-1,0.3
	c-0.2,0.4-0.2,0.8,0.2,1.1c0.5,0.3,1,0.6,1.5,0.9l0.8,0.5l0.8,0.5c0.5,0.3,1,0.6,1.5,1c0.5,0.3,1,0.7,1.4,1.1
	c0.4,0.3,0.8,0.2,1.1-0.1C299.7,348.5,299.8,348,299.4,347.7z"/>
<path class="st0" d="M288,340.5c-1.2-0.6-2.3-1.2-3.6-1.6c-1.1-0.3-2.2-0.7-3.3-1.2c-0.9-0.4-1.5,1.1-0.6,1.5c2.2,1,4.6,1.6,6.8,2.7
	C288.2,342.4,288.9,340.9,288,340.5z"/>
<path class="st0" d="M275.8,335.3c-1.2-0.5-2.5-0.9-3.8-1.1c-0.6-0.1-1.2-0.2-1.8-0.3c-0.6-0.1-1.2-0.2-1.7-0.3
	c-1-0.2-1.3,1.4-0.3,1.6c0.6,0.1,1.2,0.2,1.8,0.3c0.6,0.1,1.2,0.2,1.8,0.3c1.2,0.3,2.3,0.6,3.5,1
	C276.1,337.1,276.7,335.6,275.8,335.3z"/>
<path class="st0" d="M262.7,332.3c-1.3-0.2-2.6-0.3-3.9-0.3c-0.6,0-1.2,0.1-1.8,0.1c-0.6,0-1.2,0-1.8,0.1c-0.5,0-0.7,0.5-0.7,0.9
	c0,0.4,0.3,0.8,0.8,0.8c0.6,0,1.1,0,1.7,0c0.6,0,1.2,0,1.8,0c1.2,0,2.4,0,3.6,0.2C263.4,334.1,263.7,332.5,262.7,332.3z"/>
<path class="st0" d="M249.2,333c-0.6,0.1-1.3,0.3-1.9,0.4c-0.6,0.1-1.2,0.2-1.8,0.4c-1.1,0.3-2.3,0.5-3.4,0.6
	c-1,0.1-0.7,1.7,0.2,1.6c1.2-0.1,2.4-0.4,3.6-0.6c1.3-0.2,2.5-0.6,3.7-0.8C250.5,334.4,250.2,332.8,249.2,333z"/>
<path class="st0" d="M236.1,335.9c-1.2,0.6-2.3,1.2-3.4,1.9c-0.5,0.3-0.9,0.6-1.4,0.8c-0.5,0.2-1.1,0.5-1.6,0.7
	c-1,0.4-0.3,1.9,0.6,1.5c0.6-0.2,1.1-0.4,1.7-0.6c0.6-0.2,1.2-0.5,1.7-0.9c1.1-0.6,2.1-1.3,3.2-1.9c0.4-0.2,0.5-0.7,0.3-1.1
	C237,335.9,236.6,335.7,236.1,335.9z"/>
<path class="st0" d="M224.2,341.7c-0.6,0.3-1.1,0.7-1.7,1c-0.6,0.4-1.1,0.7-1.6,1.2c-0.4,0.4-0.9,0.8-1.3,1.1
	c-0.5,0.4-0.9,0.7-1.4,1.1c-0.8,0.6,0.2,1.9,1,1.3c0.5-0.3,1-0.7,1.5-1.1c0.5-0.4,1-0.7,1.4-1.1c0.5-0.4,1-0.7,1.5-1.1
	c0.5-0.3,1-0.7,1.5-1C225.8,342.6,225,341.2,224.2,341.7z"/>
<path class="st0" d="M213.3,349.5c-1,0.8-2.1,1.6-3,2.5c-0.4,0.4-0.8,0.8-1.3,1.2c-0.4,0.4-0.9,0.8-1.3,1.1c-0.8,0.6,0.3,1.9,1,1.3
	c0.5-0.4,0.9-0.7,1.4-1.1c0.5-0.4,0.9-0.8,1.4-1.2c0.9-0.8,1.8-1.7,2.8-2.4C215.1,350.1,214.1,348.9,213.3,349.5z"/>
<path class="st0" d="M203.1,358.1c-0.5,0.5-0.9,0.9-1.4,1.4c-0.2,0.2-0.4,0.5-0.7,0.7c-0.2,0.3-0.4,0.5-0.6,0.8
	c-0.2,0.2-0.3,0.5-0.5,0.7c-0.2,0.2-0.3,0.5-0.5,0.7c-0.2,0.2-0.4,0.5-0.5,0.7c-0.2,0.2-0.4,0.5-0.6,0.7c-0.7,0.8,0.6,1.8,1.3,1
	c0.4-0.5,0.8-0.9,1.2-1.4c0.4-0.5,0.8-0.9,1.1-1.4c0.4-0.5,0.8-0.9,1.2-1.4c0.4-0.5,0.8-0.9,1.2-1.3
	C204.9,358.6,203.8,357.4,203.1,358.1z"/>
<path class="st0" d="M194.4,368.3c-0.4,0.5-0.8,1.1-1.1,1.6c-0.4,0.5-0.7,1.1-1,1.7c-0.3,0.5-0.5,1-0.8,1.5c-0.3,0.5-0.6,1-0.9,1.5
	c-0.6,0.8,0.8,1.7,1.4,0.9c0.7-1,1.3-2.1,1.9-3.1c0.3-0.5,0.6-1.1,0.9-1.6c0.3-0.5,0.6-1,1-1.5C196.3,368.5,195,367.5,194.4,368.3z"
	/>
<path class="st0" d="M187.2,379.5c-0.7,1.1-1.4,2.2-1.9,3.4c-0.5,1-1,2.1-1.6,3.1c-0.5,0.8,0.9,1.7,1.4,0.8c1.3-2.1,2.2-4.3,3.5-6.4
	C189.1,379.5,187.7,378.7,187.2,379.5z"/>
<path class="st0" d="M180.5,391c-0.6,1.1-1.3,2.3-1.8,3.5c-0.2,0.5-0.4,1.1-0.6,1.6c-0.2,0.5-0.4,1.1-0.7,1.6
	c-0.4,0.9,1.1,1.5,1.5,0.6c0.3-0.5,0.5-1.1,0.7-1.6c0.2-0.6,0.5-1.1,0.7-1.7c0.5-1.1,1-2.2,1.6-3.3C182.4,390.9,181,390.1,180.5,391
	z"/>
<path class="st0" d="M175.2,403.4l-0.2,0.9l-0.2,0.9c-0.2,0.6-0.3,1.2-0.4,1.9c-0.2,1.1-0.5,2.3-0.9,3.3c-0.3,0.9,1.2,1.5,1.5,0.5
	c0.4-1.1,0.8-2.3,1-3.5c0.1-0.6,0.3-1.2,0.4-1.8c0.1-0.6,0.3-1.2,0.4-1.8C177,402.8,175.5,402.4,175.2,403.4z"/>
<path class="st0" d="M171.3,416c-0.2,0.6-0.4,1.3-0.5,1.9c-0.2,0.6-0.3,1.3-0.3,2c-0.1,1.2-0.2,2.4-0.4,3.5c-0.2,1,1.4,1.2,1.6,0.2
	c0.2-1.2,0.3-2.4,0.5-3.6c0.1-0.6,0.2-1.2,0.3-1.8c0.1-0.6,0.2-1.2,0.4-1.8C173.1,415.5,171.6,415,171.3,416z"/>
<path class="st0" d="M168.9,429.1c-0.1,0.6-0.3,1.3-0.4,1.9c-0.1,0.6-0.2,1.3-0.3,1.9c-0.1,1.1-0.2,2.3-0.5,3.5
	c-0.1,0.5,0.2,0.8,0.6,0.9c0.4,0.1,0.8-0.1,1-0.6c0.2-1.2,0.4-2.4,0.6-3.6l0.3-1.8c0.1-0.6,0.2-1.2,0.3-1.8c0.1-0.5-0.3-0.8-0.7-0.9
	C169.5,428.5,169,428.6,168.9,429.1z"/>
<path class="st0" d="M166.8,442.3c0,0.7-0.1,1.3-0.1,1.9c0,0.6,0,1.3,0,2c0.1,1.1,0.1,2.4,0.1,3.5c0,1,1.6,1,1.6,0
	c0-1.2,0-2.4,0-3.6c0-0.6,0-1.2,0-1.8c0-0.6,0-1.2,0-1.8C168.4,441.4,166.8,441.3,166.8,442.3z"/>
<path class="st0" d="M166.8,455.7c0.1,0.7,0.2,1.3,0.3,2c0.1,0.6,0.2,1.3,0.4,1.9c0.3,1.1,0.6,2.3,0.7,3.4c0.1,1,1.7,0.7,1.6-0.2
	c-0.1-1.2-0.4-2.4-0.6-3.6l-0.4-1.8c-0.1-0.6-0.2-1.2-0.3-1.8c-0.1-0.5-0.5-0.7-0.9-0.7C167.1,454.9,166.7,455.2,166.8,455.7z"/>
<path class="st0" d="M168.9,468.9c0.2,1.2,0.3,2.5,0.7,3.8c0.3,1.1,0.6,2.3,1,3.5c0.2,0.5,0.6,0.6,1,0.4c0.4-0.2,0.7-0.5,0.5-1
	c-0.2-0.5-0.3-1.1-0.5-1.6c-0.1-0.6-0.3-1.1-0.4-1.7c-0.3-1.2-0.5-2.4-0.7-3.6c-0.1-0.5-0.5-0.6-0.9-0.6
	C169.1,468.1,168.8,468.4,168.9,468.9z"/>
<path class="st0" d="M172.9,481.6c0.3,0.5,0.5,1.2,0.8,1.8c0.3,0.6,0.6,1.2,0.9,1.7c0.3,0.5,0.6,1,0.9,1.5c0.3,0.5,0.6,1,0.8,1.5
	c0.2,0.5,0.7,0.5,1,0.3c0.4-0.2,0.6-0.6,0.4-1c-0.2-0.5-0.5-1.1-0.8-1.6c-0.3-0.5-0.6-1.1-0.9-1.6c-0.3-0.5-0.6-1.1-0.9-1.6
	c-0.3-0.5-0.5-1.1-0.8-1.7c-0.2-0.5-0.7-0.5-1.1-0.3C173,480.8,172.7,481.2,172.9,481.6z"/>
<path class="st0" d="M179,493.5l0.5,0.8l0.6,0.8c0.4,0.5,0.8,1.1,1.2,1.5c0.4,0.4,0.8,0.8,1.2,1.3c0.4,0.4,0.8,0.9,1.2,1.3
	c0.3,0.4,0.8,0.3,1.1,0c0.3-0.3,0.4-0.7,0.1-1.1c-0.4-0.5-0.8-0.9-1.2-1.4c-0.4-0.5-0.8-0.9-1.2-1.4l-0.6-0.7
	c-0.2-0.2-0.4-0.5-0.6-0.7c-0.2-0.2-0.4-0.5-0.5-0.7c-0.2-0.3-0.3-0.5-0.5-0.8C179.9,491.8,178.5,492.6,179,493.5z"/>
<path class="st0" d="M187.8,503.7c0.5,0.4,1,0.9,1.5,1.2c0.5,0.4,1,0.8,1.5,1.1c0.9,0.6,1.9,1.3,2.7,2.1c0.7,0.7,1.8-0.6,1.1-1.2
	c-0.9-0.8-1.8-1.6-2.8-2.3c-0.5-0.4-1-0.7-1.5-1.1c-0.5-0.4-1-0.7-1.5-1.1c-0.4-0.3-0.8-0.2-1.1,0.1
	C187.5,502.9,187.4,503.4,187.8,503.7z"/>
<path class="st0" d="M198.5,511.8c1.2,0.6,2.3,1.2,3.4,1.8c0.2,0.1,0.5,0.2,0.8,0.4c0.3,0.1,0.5,0.3,0.8,0.4c0.5,0.3,1,0.5,1.5,0.8
	c0.9,0.5,1.6-0.9,0.8-1.4c-0.5-0.3-1-0.6-1.6-0.9c-0.5-0.3-1.1-0.6-1.6-0.9c-1.1-0.6-2.3-1-3.3-1.6
	C198.4,509.9,197.6,511.4,198.5,511.8z"/>
<path class="st0" d="M210.2,518.1c1.2,0.5,2.4,1.1,3.6,1.5c1.1,0.3,2.3,0.6,3.3,1c0.9,0.4,1.4-1.2,0.5-1.5c-1.1-0.4-2.3-0.8-3.4-1.2
	c-0.6-0.2-1.2-0.4-1.7-0.6c-0.6-0.2-1.1-0.4-1.7-0.7C210,516.2,209.3,517.7,210.2,518.1z"/>
<path class="st0" d="M222.8,522.6c1.3,0.3,2.5,0.7,3.8,0.8c1.1,0.1,2.3,0.3,3.4,0.5c1,0.2,1.3-1.4,0.3-1.6c-2.4-0.6-4.8-0.7-7.2-1.4
	C222.3,520.8,221.9,522.3,222.8,522.6z"/>
<path class="st0" d="M235.9,525.3c1.3,0.2,2.6,0.5,3.9,0.5c1.1,0,2.3,0.1,3.5,0.3c1,0.1,1.2-1.5,0.2-1.6c-2.4-0.4-4.8-0.4-7.3-0.8
	C235.2,523.6,234.9,525.2,235.9,525.3z"/>
<path class="st0" d="M249.1,526.9c0.7,0,1.3,0.1,2,0.1c0.7,0,1.3,0,2-0.1c1.1-0.1,2.3-0.3,3.5-0.3c1,0,0.9-1.6,0-1.6
	c-1.2,0-2.4,0.1-3.6,0.2c-0.6,0-1.2,0.1-1.8,0.1c-0.6,0-1.2,0-1.8,0c-0.5,0-0.8,0.4-0.8,0.8C248.4,526.5,248.6,526.9,249.1,526.9z"
	/>
<path class="st0" d="M262.5,526.7c1.3-0.1,2.6-0.1,3.9-0.3c1.1-0.2,2.3-0.4,3.4-0.4c1,0,0.9-1.6-0.1-1.6c-2.4,0-4.9,0.5-7.3,0.7
	C261.4,525.1,261.5,526.7,262.5,526.7z"/>
<path class="st0" d="M275.7,526c0.6-0.1,1.3-0.1,2-0.1c0.6-0.1,1.3-0.1,1.9-0.3c0.6-0.1,1.1-0.2,1.7-0.4c0.6-0.1,1.2-0.2,1.7-0.3
	c1-0.1,0.8-1.7-0.2-1.6c-0.6,0.1-1.2,0.1-1.8,0.2c-0.6,0.1-1.2,0.2-1.8,0.3c-0.6,0.1-1.2,0.2-1.8,0.3c-0.6,0.1-1.2,0.1-1.8,0.2
	c-0.5,0-0.7,0.5-0.7,0.9C274.9,525.6,275.2,526,275.7,526z"/>
<path class="st0" d="M288.9,524.2c1.3-0.2,2.6-0.4,3.8-0.8c1.1-0.3,2.2-0.7,3.4-0.9c1-0.2,0.7-1.8-0.3-1.6c-2.4,0.4-4.7,1.2-7.1,1.6
	C287.7,522.8,288,524.4,288.9,524.2z"/>
<path class="st0" d="M302,521.7c1.3-0.3,2.6-0.5,3.8-0.9c1.1-0.4,2.2-0.7,3.3-0.9c1-0.2,0.6-1.8-0.4-1.6c-2.4,0.5-4.7,1.3-7.1,1.8
	C300.7,520.3,301,521.9,302,521.7z"/>
<path class="st0" d="M314.9,518.7c0.6-0.2,1.3-0.3,1.9-0.5c0.6-0.2,1.2-0.4,1.8-0.7c0.5-0.2,1.1-0.5,1.6-0.7
	c0.5-0.2,1.1-0.4,1.6-0.6c1-0.3,0.3-1.8-0.6-1.5c-0.6,0.2-1.1,0.4-1.7,0.6c-0.6,0.2-1.1,0.4-1.7,0.7c-0.6,0.2-1.1,0.5-1.7,0.7
	c-0.6,0.2-1.1,0.4-1.7,0.6C313.5,517.4,313.9,518.9,314.9,518.7z"/>
<path class="st0" d="M327.5,514.1c1.2-0.5,2.4-1,3.5-1.6c1-0.6,2-1.1,3.1-1.5c0.9-0.3,0.3-1.9-0.6-1.5c-2.3,0.9-4.4,2.2-6.6,3.1
	C325.9,513,326.5,514.5,327.5,514.1z"/>
<path class="st0" d="M339.7,508.9c1.2-0.5,2.4-1,3.5-1.7c1-0.6,2-1.2,3-1.7c0.9-0.4,0.2-1.9-0.7-1.5c-2.2,1-4.2,2.4-6.5,3.4
	c-0.4,0.2-0.5,0.7-0.4,1C338.8,508.9,339.2,509.1,339.7,508.9z"/>
<path class="st0" d="M351.6,503.1c0.6-0.3,1.2-0.6,1.8-0.8c0.6-0.3,1.2-0.6,1.7-1c0.5-0.3,1-0.6,1.5-0.9c0.5-0.3,1-0.6,1.5-0.9
	c0.9-0.4,0.1-1.9-0.8-1.4c-0.5,0.3-1.1,0.6-1.6,0.9c-0.5,0.3-1.1,0.6-1.6,0.9c-0.5,0.3-1,0.6-1.6,0.9c-0.5,0.3-1.1,0.6-1.6,0.9
	C350,502.1,350.7,503.5,351.6,503.1z"/>
<path class="st0" d="M363.4,496.8c0.6-0.3,1.1-0.7,1.7-1c0.6-0.3,1.1-0.7,1.6-1.1c0.5-0.3,0.9-0.7,1.4-1c0.5-0.3,1-0.7,1.4-1
	c0.9-0.5,0-1.9-0.9-1.4c-0.5,0.3-1,0.6-1.5,1c-0.5,0.3-1,0.7-1.5,1c-0.5,0.4-1,0.7-1.5,1c-0.5,0.3-1,0.7-1.5,1
	C361.7,495.9,362.5,497.3,363.4,496.8z"/>
<path class="st0" d="M374.6,489.7c1.1-0.7,2.2-1.4,3.2-2.3c0.9-0.8,1.8-1.5,2.7-2.2c0.8-0.6-0.1-1.9-0.9-1.3c-1,0.7-2,1.4-2.9,2.2
	c-1,0.8-1.9,1.5-2.9,2.2c-0.4,0.3-0.4,0.8-0.2,1.1C373.8,489.8,374.2,490,374.6,489.7z"/>
<path class="st0" d="M385.4,482c1-0.8,2.1-1.5,3.1-2.4c0.8-0.8,1.7-1.6,2.6-2.3c0.8-0.6-0.2-1.9-1-1.3c-1,0.7-1.9,1.5-2.8,2.3
	c-0.5,0.4-0.9,0.8-1.4,1.2c-0.5,0.4-0.9,0.8-1.4,1.1C383.7,481.3,384.6,482.6,385.4,482z"/>
<path class="st0" d="M396,473.9c0.5-0.4,1-0.8,1.5-1.2c0.5-0.4,1-0.8,1.4-1.3c0.8-0.8,1.7-1.7,2.5-2.4c0.8-0.6-0.3-1.9-1-1.2
	c-0.9,0.8-1.8,1.6-2.7,2.4c-0.9,0.8-1.8,1.7-2.8,2.4C394.2,473.2,395.2,474.5,396,473.9z"/>
<path class="st0" d="M406.1,465.3c0.5-0.4,1-0.9,1.5-1.3c0.5-0.4,0.9-0.9,1.4-1.4c0.4-0.4,0.8-0.9,1.2-1.3c0.4-0.4,0.8-0.8,1.2-1.2
	c0.7-0.7-0.4-1.8-1.1-1.2c-0.4,0.4-0.9,0.8-1.3,1.3c-0.4,0.4-0.8,0.9-1.3,1.3l-1.3,1.3c-0.4,0.4-0.9,0.9-1.3,1.3
	C404.3,464.8,405.4,466,406.1,465.3z"/>
<path class="st0" d="M415.7,456.1c0.4-0.5,0.9-0.9,1.4-1.4c0.4-0.5,0.9-1,1.2-1.5c0.3-0.5,0.7-0.9,1-1.4c0.4-0.5,0.7-0.9,1.1-1.3
	c0.7-0.7-0.6-1.8-1.2-1.1c-0.4,0.4-0.8,0.9-1.2,1.4c-0.4,0.5-0.8,0.9-1.1,1.4c-0.4,0.5-0.7,1-1.1,1.4c-0.4,0.5-0.8,0.9-1.2,1.4
	c-0.3,0.4-0.2,0.8,0.1,1.1C414.9,456.4,415.4,456.5,415.7,456.1z"/>
<path class="st0" d="M424.4,445.9c0.4-0.5,0.8-1,1.2-1.6c0.4-0.5,0.8-1.1,1.1-1.6c0.3-0.5,0.6-1,0.9-1.5c0.3-0.5,0.6-1,0.9-1.5
	c0.3-0.4,0.1-0.8-0.3-1c-0.4-0.2-0.8-0.2-1.1,0.2c-0.3,0.5-0.6,1-1,1.5c-0.3,0.5-0.6,1-0.9,1.6c-0.3,0.5-0.6,1-1,1.5
	c-0.3,0.5-0.7,1-1,1.5C422.5,445.7,423.8,446.7,424.4,445.9z"/>
<path class="st0" d="M431.5,434.6c0.3-0.6,0.6-1.1,0.9-1.6c0.3-0.5,0.7-1,1-1.6c0.6-0.9,1.3-1.9,2-2.8c0.3-0.4,0.1-0.8-0.2-1.1
	c-0.3-0.2-0.8-0.3-1.1,0.1c-0.7,0.9-1.5,1.9-2.2,2.9c-0.3,0.5-0.7,1.1-1,1.6c-0.3,0.6-0.6,1.1-0.9,1.7
	C429.6,434.7,431,435.4,431.5,434.6z"/>
<path class="st0" d="M438.5,423.3c0.5-1.2,1-2.4,1.3-3.7c0.1-0.6,0.3-1.2,0.4-1.7c0.1-0.6,0.2-1.2,0.3-1.8c0.1-0.5-0.3-0.8-0.7-0.8
	c-0.4,0-0.8,0.2-0.9,0.6c-0.1,0.6-0.2,1.2-0.3,1.7c-0.1,0.6-0.3,1.2-0.5,1.7c-0.3,1.2-0.7,2.3-1.2,3.4
	C436.6,423.6,438.1,424.2,438.5,423.3z"/>
<path class="st0" d="M25,373.4c0-6.9-5.6-12.5-12.5-12.5c-6.9,0-12.5,5.6-12.5,12.5c0,0-0.1,0.6,0.2,2.2c0.1,0.8,0.4,1.7,0.7,2.4
	c1.3,3.7,4.4,10.1,11.6,20.1c7.3-10,10.3-16.4,11.6-20.1c0.3-0.8,0.5-1.6,0.7-2.4C25.1,374,25,373.4,25,373.4z M12.5,381
	c-4.2,0-7.6-3.4-7.6-7.6c0-4.2,3.4-7.6,7.6-7.6c4.2,0,7.6,3.4,7.6,7.6C20.1,377.6,16.7,381,12.5,381z"/>
<path class="st0" d="M15.3,403.5c0,1.5-1.3,2.8-2.8,2.8s-2.8-1.3-2.8-2.8c0-1.5,1.3-2.8,2.8-2.8S15.3,401.9,15.3,403.5z"/>
<g>
	<g>
		<g>
			<path class="st0" d="M621.6,18.1l2.2,1.6l-0.8,2.6c-0.5,1.4,0,2.9,1.2,3.8c1.2,0.9,2.8,0.9,4,0l2.2-1.6l2.2,1.6
				c0.6,0.4,1.3,0.6,2,0.6c0.7,0,1.4-0.2,2-0.6c1.2-0.9,1.7-2.4,1.2-3.8l-0.8-2.6l2.2-1.6c1.2-0.9,1.7-2.4,1.2-3.8
				c-0.5-1.4-1.8-2.4-3.2-2.4h-2.7l-0.8-2.6c-0.5-1.4-1.8-2.4-3.2-2.4s-2.8,0.9-3.2,2.4l-0.8,2.6h-2.7c-1.5,0-2.8,0.9-3.2,2.4
				C619.9,15.7,620.4,17.3,621.6,18.1z"/>
			<path class="st0" d="M648.8,18.1l2.2,1.6l-0.8,2.6c-0.5,1.4,0,2.9,1.2,3.8c1.2,0.9,2.8,0.9,4,0l2.2-1.6l2.2,1.6
				c0.6,0.4,1.3,0.6,2,0.6c0.7,0,1.4-0.2,2-0.6c1.2-0.9,1.7-2.4,1.2-3.8l-0.8-2.6l2.2-1.6c1.2-0.9,1.7-2.4,1.2-3.8
				c-0.5-1.4-1.8-2.4-3.2-2.4h-2.7l-0.8-2.6c-0.5-1.4-1.8-2.4-3.2-2.4c-1.5,0-2.8,0.9-3.2,2.4l-0.8,2.6h-2.7c-1.5,0-2.8,0.9-3.2,2.4
				C647.1,15.7,647.6,17.3,648.8,18.1z"/>
			<path class="st0" d="M594.4,18.1l2.2,1.6l-0.8,2.6c-0.5,1.4,0,2.9,1.2,3.8c1.2,0.9,2.8,0.9,4,0l2.2-1.6l2.2,1.6
				c0.6,0.4,1.3,0.6,2,0.6c0.7,0,1.4-0.2,2-0.6c1.2-0.9,1.7-2.4,1.2-3.8l-0.8-2.6l2.2-1.6c1.2-0.9,1.7-2.4,1.2-3.8
				c-0.5-1.4-1.8-2.4-3.2-2.4h-2.7l-0.8-2.6c-0.5-1.4-1.8-2.4-3.2-2.4c-1.5,0-2.8,0.9-3.2,2.4l-0.8,2.6h-2.7c-1.5,0-2.8,0.9-3.2,2.4
				C592.7,15.7,593.2,17.3,594.4,18.1z"/>
			<path class="st0" d="M667.8,51.3h-20.4v-17c0-1.9-1.5-3.4-3.4-3.4h-27.2c-1.9,0-3.4,1.5-3.4,3.4v17H593c-1.9,0-3.4,1.5-3.4,3.4
				v30.6c0,1.9,1.5,3.4,3.4,3.4h23.8H644h23.8c1.9,0,3.4-1.5,3.4-3.4V54.7C671.2,52.8,669.7,51.3,667.8,51.3z M596.4,58.1h17v23.8
				h-17V58.1z M620.2,54.7v-17h20.4v17v27.2h-6.8V71.7c0-1.9-1.5-3.4-3.4-3.4s-3.4,1.5-3.4,3.4v10.2h-6.8V54.7z M664.4,81.9h-17
				V58.1h17L664.4,81.9L664.4,81.9z"/>
			<path class="st0" d="M627,47.9h6.8c1.9,0,3.4-1.5,3.4-3.4s-1.5-3.4-3.4-3.4H627c-1.9,0-3.4,1.5-3.4,3.4
				C623.6,46.3,625.1,47.9,627,47.9z"/>
			<path class="st0" d="M627,58.1h6.8c1.9,0,3.4-1.5,3.4-3.4c0-1.9-1.5-3.4-3.4-3.4H627c-1.9,0-3.4,1.5-3.4,3.4
				C623.6,56.6,625.1,58.1,627,58.1z"/>
			<path class="st0" d="M606.6,61.5h-3.4c-1.9,0-3.4,1.5-3.4,3.4c0,1.9,1.5,3.4,3.4,3.4h3.4c1.9,0,3.4-1.5,3.4-3.4
				C610,63,608.5,61.5,606.6,61.5z"/>
			<path class="st0" d="M606.6,71.7h-3.4c-1.9,0-3.4,1.5-3.4,3.4c0,1.9,1.5,3.4,3.4,3.4h3.4c1.9,0,3.4-1.5,3.4-3.4
				C610,73.2,608.5,71.7,606.6,71.7z"/>
			<path class="st0" d="M654.2,68.3h3.4c1.9,0,3.4-1.5,3.4-3.4s-1.5-3.4-3.4-3.4h-3.4c-1.9,0-3.4,1.5-3.4,3.4S652.3,68.3,654.2,68.3
				z"/>
			<path class="st0" d="M654.2,78.5h3.4c1.9,0,3.4-1.5,3.4-3.4s-1.5-3.4-3.4-3.4h-3.4c-1.9,0-3.4,1.5-3.4,3.4S652.3,78.5,654.2,78.5
				z"/>
		</g>
	</g>
</g>
<g>
	<g>
		<g>
			<path class="st0" d="M485.2,402.2c-1.6,0-2.3-0.6-3.3-1.5c-1.1-0.9-2.5-2.1-5.1-2.1s-4,1.2-5.1,2.1c-1,0.9-1.7,1.5-3.3,1.5
				c-1.6,0-2.3-0.6-3.3-1.5c-1.1-0.9-2.5-2.1-5.1-2.1c-2.6,0-4,1.2-5.1,2.1c-1,0.9-1.7,1.5-3.3,1.5c-1.6,0-2.3-0.6-3.3-1.5
				c-1.1-0.9-2.5-2.1-5.1-2.1s-4,1.2-5.1,2.1c-1,0.9-1.7,1.5-3.3,1.5s-2.3-0.6-3.3-1.5c-1.1-0.9-2.5-2.1-5.1-2.1
				c-0.5,0-0.9,0-1.3,0.1c0.9-2.3,1.6-5.2,2.1-8.7c0.1-0.7-0.4-1.4-1.1-1.5c-0.7-0.1-1.4,0.4-1.5,1.1c-1,6.6-2.6,10.8-4.7,12.1
				c0,0-0.1,0-0.1,0.1v-5.3c0-0.7-0.6-1.3-1.3-1.3s-1.3,0.6-1.3,1.3v5.3c-2.2-1.3-5.4-6.7-5.9-26.1c0.6,0.5,1.3,0.9,2.4,0.9
				c1.9,0,2.8-1.4,3.5-2.4c0.6-0.9,0.9-1.2,1.3-1.2c0.4,0,0.7,0.3,1.3,1.2c0.7,1,1.6,2.4,3.5,2.4c1,0,1.8-0.4,2.4-0.9
				c-0.1,2.2-0.2,4.3-0.3,6.3c-0.1,0.7,0.5,1.4,1.2,1.4c0,0,0.1,0,0.1,0c0.7,0,1.3-0.5,1.3-1.2c0.2-3.1,0.3-6.5,0.4-10.1
				c0-0.7,0-1.5,0-2.4c0-0.4,0-0.9,0-1.3c0-0.4,0-0.9,0-1.3c-0.1-2.6-0.2-5.1-0.5-7.7c-0.7-6.4-2-12.6-3.7-17.3
				c-1.8-5-3.7-7.6-5.7-7.6c-1.2,0-2.4,1-3.6,3c-1,1.7-1.9,4-2.8,6.8c-0.2,0.7,0.2,1.4,0.9,1.7c0.7,0.2,1.4-0.2,1.7-0.9
				c1.7-5.3,3.3-7.6,3.9-8c0.5,0.3,1.8,1.8,3.4,6.4c1.5,4.3,2.7,9.8,3.3,15.6c-0.2,0.2-0.4,0.5-0.5,0.7c-0.6,0.9-0.9,1.2-1.3,1.2
				c-0.4,0-0.7-0.3-1.3-1.2c-0.7-1-1.6-2.4-3.5-2.4c-1.9,0-2.8,1.4-3.5,2.4c-0.6,0.9-0.9,1.2-1.3,1.2c-0.4,0-0.7-0.3-1.3-1.2
				c-0.2-0.2-0.3-0.5-0.5-0.7c0.3-2.2,0.6-4.5,1-6.6c0.1-0.7-0.3-1.4-1.1-1.6c-0.7-0.1-1.4,0.3-1.6,1.1c-0.5,2.4-0.8,4.9-1.1,7.4
				c0,0,0,0,0,0c-0.3,3-0.5,6-0.5,9c0,0.4,0,0.9,0,1.3c0,0.9,0,1.6,0,2.4v0c0.1,12.7,1.3,21.6,3.4,26.9c-0.6-0.2-1.4-0.4-2.3-0.4
				c-2.6,0-4,1.2-5.1,2.1c-1,0.9-1.7,1.5-3.3,1.5c-0.7,0-1.3,0.6-1.3,1.3v1c0,6,4.9,10.9,10.8,10.9h56.6c0.7,0,1.3-0.6,1.3-1.3
				s-0.6-1.3-1.3-1.3h-56.6c-4.4,0-8-3.6-8.2-8.1c1.8-0.3,2.8-1.2,3.7-2c1-0.9,1.7-1.5,3.3-1.5c1.6,0,2.3,0.6,3.3,1.5
				c1.1,0.9,2.4,2,4.8,2.1c0.2,0,0.5,0,0.7,0c0,0,0,0,0,0c0,0,0,0,0,0c1.1,0,2.1-0.3,3-1c0.6-0.4,1.1-0.8,1.6-1.2
				c1-0.9,1.7-1.5,3.3-1.5c1.6,0,2.3,0.6,3.3,1.5c1.1,0.9,2.5,2.1,5.1,2.1s4-1.2,5.1-2.1c1-0.9,1.7-1.5,3.3-1.5s2.3,0.6,3.3,1.5
				c1.1,0.9,2.5,2.1,5.1,2.1c2.6,0,4-1.2,5.1-2.1c1-0.9,1.7-1.5,3.3-1.5c1.6,0,2.3,0.6,3.3,1.5c1.1,0.9,2.5,2.1,5.1,2.1
				c2.6,0,4-1.2,5.1-2.1c1-0.9,1.7-1.5,3.3-1.5c1.6,0,2.3,0.6,3.3,1.5c0.9,0.8,2,1.7,3.7,2c-0.1,4.5-3.7,8.1-8.2,8.1
				c-0.7,0-1.3,0.6-1.3,1.3s0.6,1.3,1.3,1.3c6,0,10.8-4.9,10.8-10.9v-1C486.6,402.8,486,402.2,485.2,402.2z M411,370.9
				c0,0,0-0.1,0-0.1c0-0.1,0-0.3,0-0.4c0-0.1,0-0.1,0-0.2c0-0.2,0-0.4,0-0.5c0-0.5,0-1,0-1.5c0-0.1,0-0.3,0-0.4c0-0.4,0-0.8,0-1.2
				c0-0.1,0-0.3,0-0.4c0-0.5,0-1,0.1-1.5c0-0.1,0-0.1,0-0.2c0-0.4,0.1-0.9,0.1-1.3c0-0.1,0-0.1,0-0.2c0.6,0.5,1.3,0.8,2.2,0.8
				c1.9,0,2.8-1.4,3.5-2.4c0.6-0.9,0.9-1.2,1.3-1.2c0.4,0,0.7,0.3,1.3,1.2c0.7,1,1.6,2.4,3.5,2.4c0.9,0,1.7-0.3,2.2-0.8
				c0,0.1,0,0.1,0,0.2c0,0.4,0.1,0.9,0.1,1.3c0,0.1,0,0.1,0,0.2c0,0.5,0,1,0.1,1.5c0,0.1,0,0.3,0,0.4c0,0.4,0,0.8,0,1.1
				c0,0.1,0,0.3,0,0.4c0,0.5,0,1,0,1.5c0,0.2,0,0.4,0,0.6c0,0.1,0,0.1,0,0.2c0,0.1,0,0.3,0,0.4c0,0,0,0.1,0,0.1c0,0.2,0,0.3,0,0.5
				c-0.5,0.4-0.8,0.9-1.1,1.4c-0.6,0.9-0.9,1.2-1.3,1.2c-0.4,0-0.7-0.3-1.3-1.2c-0.7-1-1.6-2.4-3.5-2.4c-1.9,0-2.8,1.4-3.5,2.4
				c-0.6,0.9-0.9,1.2-1.3,1.2c-0.4,0-0.7-0.3-1.3-1.2c-0.3-0.5-0.7-1-1.1-1.4C411,371.3,411,371.1,411,370.9z"/>
		</g>
	</g>
	<g>
		<g>
			<g>
				<path class="st0" d="M459.7,349.3c-7.8,0-14.2,6.4-14.2,14.2c0,7.8,6.4,14.2,14.2,14.2s14.2-6.4,14.2-14.2
					C473.9,355.7,467.5,349.3,459.7,349.3z M459.7,374.1c-5.8,0-10.6-4.7-10.6-10.6c0-5.8,4.7-10.6,10.6-10.6s10.6,4.7,10.6,10.6
					C470.3,369.3,465.6,374.1,459.7,374.1z"/>
			</g>
		</g>
		<g>
			<g>
				<path class="st0" d="M459.7,340.8c-1,0-1.8,0.8-1.8,1.8v2.6c0,1,0.8,1.8,1.8,1.8s1.8-0.8,1.8-1.8v-2.6
					C461.5,341.6,460.7,340.8,459.7,340.8z"/>
			</g>
		</g>
		<g>
			<g>
				<path class="st0" d="M459.7,379.9c-1,0-1.8,0.8-1.8,1.8v2.6c0,1,0.8,1.8,1.8,1.8s1.8-0.8,1.8-1.8v-2.6
					C461.5,380.7,460.7,379.9,459.7,379.9z"/>
			</g>
		</g>
		<g>
			<g>
				<path class="st0" d="M475.8,347.4c-0.7-0.7-1.8-0.7-2.6,0l-1.9,1.9c-0.7,0.7-0.7,1.8,0,2.6c0.4,0.4,0.8,0.5,1.3,0.5
					c0.5,0,0.9-0.2,1.3-0.5l1.9-1.9C476.5,349.3,476.5,348.1,475.8,347.4z"/>
			</g>
		</g>
		<g>
			<g>
				<path class="st0" d="M448.1,375.1c-0.7-0.7-1.8-0.7-2.6,0l-1.9,1.9c-0.7,0.7-0.7,1.8,0,2.6c0.4,0.4,0.8,0.5,1.3,0.5
					c0.5,0,0.9-0.2,1.3-0.5l1.9-1.9C448.8,376.9,448.8,375.8,448.1,375.1z"/>
			</g>
		</g>
		<g>
			<g>
				<path class="st0" d="M480.6,361.7H478c-1,0-1.8,0.8-1.8,1.8s0.8,1.8,1.8,1.8h2.6c1,0,1.8-0.8,1.8-1.8
					C482.4,362.5,481.6,361.7,480.6,361.7z"/>
			</g>
		</g>
		<g>
			<g>
				<path class="st0" d="M441.5,361.7h-2.6c-1,0-1.8,0.8-1.8,1.8s0.8,1.8,1.8,1.8h2.6c1,0,1.8-0.8,1.8-1.8
					C443.3,362.5,442.5,361.7,441.5,361.7z"/>
			</g>
		</g>
		<g>
			<g>
				<path class="st0" d="M475.8,377l-1.9-1.9c-0.7-0.7-1.8-0.7-2.6,0c-0.7,0.7-0.7,1.8,0,2.6l1.9,1.9c0.4,0.4,0.8,0.5,1.3,0.5
					c0.5,0,0.9-0.2,1.3-0.5C476.5,378.8,476.5,377.7,475.8,377z"/>
			</g>
		</g>
		<g>
			<g>
				<path class="st0" d="M448.1,349.3l-1.9-1.9c-0.7-0.7-1.8-0.7-2.6,0c-0.7,0.7-0.7,1.8,0,2.6l1.9,1.9c0.4,0.4,0.8,0.5,1.3,0.5
					c0.5,0,0.9-0.2,1.3-0.5C448.8,351.2,448.8,350,448.1,349.3z"/>
			</g>
		</g>
	</g>
</g>
</svg>
